<svg xmlns="http://www.w3.org/2000/svg" width="65.015" height="52.757"><g transform="translate(-1659.295 -1093.32)"><radialGradient id="a" cx="1691.804" cy="1123.723" r="32.217" fx="1677.123" fy="1110.191" gradientTransform="matrix(1 0 0 .8263 0 191.166)" gradientUnits="userSpaceOnUse"><stop offset="0" stop-color="red"/><stop offset=".588" stop-color="#ed1c24"/><stop offset=".994" stop-color="#c1272d"/></radialGradient><path d="M1683.042 1094.636s8.127 5.614 21.715 0c0 0 15.672-4.705 19.314 12.549 0 0 3.864 27.627-19.447 37.865 0 0-2.234 1.651-6.313 0 0 0-7.543 2.643-13.139-.552 0 0-3.596 3.412-10.256-1.65 0 0-22.779-13.648-13.322-40.176.001 0 5.464-13.541 21.448-8.036z" fill="url(#a)"/><linearGradient id="b" gradientUnits="userSpaceOnUse" x1="1676.832" y1="1098.777" x2="1676.832" y2="1137.044"><stop offset="0" stop-color="red"/><stop offset=".224" stop-color="#fff"/><stop offset=".594" stop-color="red"/></linearGradient><path d="M1687.999 1099.991s-22.333-7.934-22.321 16.768c0 0-.799 9.594 10.422 20.286-.001-.001-9.237-33.611 11.899-37.054z" fill="url(#b)"/><path d="M1681.578 1096.047s9.326-6.795 22.38 1.066c0 .001-10.39 6.793-22.38-1.066z" fill="#c40e1d"/></g></svg>