<svg xmlns="http://www.w3.org/2000/svg" width="731" height="929">
    <path d="M333.777 256.871s49.105-29.156 45.771-93.311c0 0 3.168-21.967 8.939-30.441 0 0-6.469 31.645-3.25 49.667 0 0-3.242 63.843-50.18 86.372.001 0-7.341-7.982-1.28-12.287z"
          fill="#3a2510"/>
    <g fill="#3a2510">
        <path d="M309.158 201.089s-56.49-8.372-77.717-69.005c0 0-11.256-19.129-19.809-24.785 0 0 17.979 26.834 21.83 44.731 0 0 25.207 51.729 77.182 54.79 0 0 5.754-4.042-1.486-5.731z"/>
        <path d="M238.529 156.07s-23.83 7.138-43.409-12.856c0 0-7.975-5.465-12.394-6.115 0 0 12.051 7.262 16.877 13.609 0 0 19.504 15.746 40.57 7.35 0-.001 1.524-2.66-1.644-1.988z"/>
    </g>
    <g fill="#3a2510">
        <path d="M312.24 250.69s-41.271-6.116-56.779-50.414c0 0-8.223-13.975-14.471-18.106 0 0 13.134 19.604 15.948 32.68 0 0 18.415 37.791 56.388 40.028 0-.001 4.203-2.954-1.086-4.188z"/>
        <path d="M260.638 217.8s-17.408 5.214-31.713-9.394c0 0-5.826-3.992-9.055-4.467 0 0 8.805 5.306 12.33 9.943 0 0 14.249 11.503 29.641 5.368 0 .001 1.113-1.941-1.203-1.45z"/>
    </g>
    <g fill="#3a2510">
        <path d="M286.84 193.943s.836-27.323-25.934-42.455c0 0-8.06-6.922-10-11.431 0 0 11.121 10.741 19.227 14.071 0 0 22.237 16.253 19.281 40.999 0 0-2.393 2.369-2.574-1.184z"/>
        <path d="M271.606 156.856s5.38-10.622-2.383-21.539c0 0-1.899-4.22-1.831-6.356 0 0 2.4 6.292 4.982 9.104 0 0 5.768 10.521.029 19.735.001-.001-1.382.491-.797-.944z"/>
    </g>
    <g fill="#3a2510">
        <path d="M500.374 200.346s18.054-20.526 7.063-49.246c0 0-1.8-10.47-.425-15.181 0 0 1.729 15.364 5.854 23.096 0 0 6.782 26.695-11.263 43.884 0 0-3.353.302-1.229-2.553z"/>
        <path d="M512.263 162.056s10.914-4.759 11.887-18.119c0 0 1.225-4.463 2.639-6.065 0 0-2.158 6.379-1.959 10.191 0 0-2.26 11.783-12.553 15.229 0-.001-1.381-.502-.014-1.236z"/>
    </g>
    <g fill="#3a2510">
        <path d="M293.23 302.516s-11.434-6.309-11.133-20.996c0 0-.883-4.998-2.263-6.893 0 0 1.706 7.186 1.101 11.327 0 0 1.266 13.098 12.154 17.908.001 0 1.557-.405.141-1.346z"/>
        <path d="M317.281 302.398s-23.584 7.909-43.805-11.438c0 0-8.148-5.202-12.586-5.707 0 0 12.28 6.864 17.312 13.052 0 0 20.006 15.104 40.788 6.023 0 0 1.435-2.706-1.709-1.93z"/>
    </g>
    <g fill="#3a2510">
        <path d="M253.615 541.57s-6.14 11.525-20.83 11.439c0 0-4.984.957-6.858 2.363 0 0 7.159-1.811 11.31-1.266 0 0 13.078-1.457 17.729-12.416-.001 0-.431-1.55-1.351-.12z"/>
        <path d="M253.144 517.525s8.255 23.465-10.793 43.967c0 0-5.082 8.223-5.523 12.668 0 0 6.686-12.379 12.798-17.5 0 0 14.808-20.227 5.425-40.873-.001 0-2.727-1.397-1.907 1.738z"/>
    </g>
    <g fill="#3a2510">
        <path d="M222.767 438.477s-6.141 11.523-20.831 11.439c0 0-4.985.955-6.858 2.363 0 0 7.159-1.813 11.31-1.268 0 0 13.077-1.457 17.729-12.415-.001.001-.43-1.549-1.35-.119z"/>
        <path d="M222.296 414.43s8.255 23.466-10.794 43.966c0 0-5.082 8.225-5.522 12.67 0 0 6.685-12.381 12.798-17.502 0 0 14.808-20.224 5.426-40.873-.001.001-2.73-1.395-1.908 1.739z"/>
    </g>
    <g fill="#3a2510">
        <path d="M134.382 296.45s-11.203-6.706-10.387-21.374c0 0-.707-5.026-2.02-6.968 0 0 1.453 7.241.702 11.358 0 0 .804 13.134 11.518 18.325.001.001 1.57-.35.187-1.341z"/>
        <path d="M158.423 297.179s-23.849 7.074-43.375-12.971c0 0-7.961-5.486-12.378-6.147 0 0 12.032 7.293 16.842 13.653 0 0 19.462 15.798 40.552 7.455 0 0 1.529-2.655-1.641-1.99z"/>
    </g>
    <g fill="#3a2510">
        <path d="M267.197 259.695s-13.037-.744-19.117-14.118c0 0-2.957-4.125-5.021-5.236 0 0 4.646 5.741 5.89 9.737 0 0 6.805 11.263 18.703 10.894 0 0 1.229-1.04-.455-1.277z"/>
        <path d="M288.832 249.19s-17.847 17.33-44.442 8.627c0 0-9.598-1.166-13.817.297 0 0 14.041.879 21.253 4.283 0 0 24.569 4.969 39.384-12.204-.001 0 .122-3.062-2.378-1.003z"/>
    </g>
    <g fill="#3a2510">
        <path d="M312.589 111.59s7.735-10.521 22.261-8.322c0 0 5.07-.229 7.127-1.352 0 0-7.346.762-11.375-.374 0 0-13.15-.44-19.33 9.734-.001 0 .2 1.595 1.317.314z"/>
        <path d="M309.594 135.454s-4.792-24.41 17.009-41.956c0 0 6.213-7.407 7.289-11.742 0 0-8.396 11.288-15.184 15.477 0 0-17.564 17.883-11.252 39.666.001 0 2.499 1.773 2.138-1.445z"/>
    </g>
    <path d="M375.767 250.787s4.115 18.866 24.658 25.327c0 0 6.588 3.568 8.662 6.377 0 0-9.297-5.739-15.303-6.837 0 0-17.693-7.895-19.947-25.305.001.001 1.2-1.974 1.93.438z"
          fill="#3a2510"/>
    <g fill="#3a2510">
        <path d="M525.463 442.636s-5.148 9.098 1.216 18.984c0 0 1.495 3.777 1.349 5.648 0 0-1.85-5.615-3.999-8.186 0 0-4.631-9.459.776-17.307-.001 0 1.23-.373.658.861z"/>
        <path d="M495.227 408.049s5.433 23.825 31.575 33.808c0 0 8.193 5.135 10.551 8.928 0 0-11.465-8.156-19.211-10.053 0 0-23.98-10.785-24.678-33.455.001.001 1.116-2.401 1.763.772z"/>
    </g>
    <g fill="#3a2510">
        <path d="M589.562 470.445s-13.877 16.266-4.942 38.59c0 0 1.532 8.168.512 11.867 0 0-1.532-11.994-4.849-17.99 0 0-5.619-20.795 8.289-34.449 0 0 2.619-.274.99 1.982z"/>
        <path d="M542.301 389.234s1.644 49.953 50.254 80.167c0 0 14.454 13.496 17.712 22.029 0 0-19.85-20.836-34.664-27.656 0 0-43.957-30.981-36.541-76.774 0-.001 3.174-4.39 3.239 2.234z"/>
    </g>
    <g fill="#3a2510">
        <path d="M111.324 447.556s13.877 16.266 4.943 38.588c0 0-1.533 8.168-.512 11.869 0 0 1.533-11.994 4.848-17.99 0 0 5.621-20.797-8.288-34.449 0 0-2.618-.275-.991 1.982z"/>
        <path d="M158.586 366.344s-1.643 49.953-50.254 80.167c0 0-14.453 13.496-17.712 22.029 0 0 19.849-20.836 34.664-27.656 0 0 43.958-30.982 36.542-76.775 0 .001-3.174-4.388-3.24 2.235z"/>
    </g>
    <g fill="#3a2510">
        <path d="M461.865 465.892s-5.148 9.098 1.215 18.982c0 0 1.494 3.777 1.348 5.648 0 0-1.85-5.615-3.999-8.184 0 0-4.631-9.461.776-17.307 0 0 1.23-.373.66.861z"/>
        <path d="M434.106 430.428s2.956 24.701 29.099 34.683c0 0 8.191 5.135 10.549 8.93 0 0-11.465-8.156-19.211-10.053 0 0-22.215-11.607-22.914-34.277 0 0 1.83-2.456 2.477.717z"/>
    </g>
    <g fill="#3a2510">
        <path d="M458.818 545.73s-5.148 9.1 1.215 18.984c0 0 1.496 3.777 1.35 5.648 0 0-1.851-5.615-4-8.186 0 0-4.631-9.459.776-17.307 0 0 1.231-.371.659.861z"/>
        <path d="M431.06 510.267s2.955 24.701 29.098 34.684c0 0 8.192 5.135 10.55 8.928 0 0-11.465-8.154-19.21-10.051 0 0-22.217-11.607-22.916-34.277 0-.001 1.831-2.458 2.478.716z"/>
    </g>
    <path d="M363.398 242.869s18.308 16.843 44.66 7.428c0 0 9.563-1.426 13.82-.076 0 0-14.014 1.258-21.131 4.854 0 0-24.426 5.628-39.697-11.141 0 .001-.207-3.055 2.348-1.065zM302.836 491.265s-10.879-22.373-38.849-23.25c0 0-9.421-2.17-12.89-4.982 0 0 13.502 3.955 21.441 3.209 0 0 24.793 3.697 32.873 24.891.001 0-.925 2.919-2.575.132zM194.062 515.789s-10.878-22.373-38.849-23.248c0 0-9.421-2.172-12.89-4.984 0 0 13.502 3.955 21.441 3.211 0 0 24.793 3.695 32.873 24.889.001-.001-.924 2.917-2.575.132zM447.865 238.674s12.127-21.721-3.155-45.164c0 0-3.608-8.968-3.286-13.423 0 0 4.48 13.337 9.634 19.423 0 0 11.149 22.449-1.61 41.2-.001 0-2.926.911-1.583-2.036zM215.857 342.033s24.037-6.405 30.238-33.694c0 0 3.929-8.833 7.354-11.701 0 0-6.46 12.498-7.246 20.435 0 0-8.362 23.63-30.707 27.514 0-.001-2.69-1.467.361-2.554zM382.752 183.363s21.17-.418 31.833-21.717c0 0 5.04-6.505 8.452-8.182 0 0-7.875 9.021-10.135 15.422 0 0-11.707 17.837-30.967 16.515 0 0-1.926-1.758.817-2.038z"
          fill="#3a2510"/>
    <g fill="#3a2510">
        <path d="M308.14 136.983s-29.359-17.798-27-56.348c0 0-1.783-13.224-5.206-18.35 0 0 3.714 19.059 1.681 29.876 0 0 1.922 34.54 30.014 48.345 0 0 4.13-.901.511-3.523z"/>
        <path d="M298.971 133.93s-24.382 4.936-42.056-16.76c0 0-7.445-6.169-11.787-7.218 0 0 11.339 8.329 15.568 15.09 0 0 17.986 17.458 39.731 11.015.001 0 1.76-2.509-1.456-2.127zM283.716 111.213s10.244-3.918 11.704-16.168c0 0 1.315-4.054 2.684-5.471 0 0-2.256 5.778-2.234 9.294 0 0-2.576 10.747-12.194 13.48-.001.001-1.247-.518.04-1.135z"/>
    </g>
    <g fill="#3a2510">
        <path d="M567.098 278.426s22.965-5.123 40.083 15.064c0 0 7.156 5.695 11.281 6.607 0 0-10.878-7.666-15.004-13.981 0 0-17.336-16.175-37.779-9.676 0 0-1.615 2.406 1.419 1.986z"/>
        <path d="M573.082 275.586s9.719-14.006 28.753-11.659c0 0 6.61-.48 9.255-2.021 0 0-9.561 1.259-14.859-.08 0 0-17.18-.104-24.878 13.4-.001.001.319 2.075 1.729.36zM591.404 279.586s-3.209 6.798 1.879 13.551c0 0 1.273 2.629 1.268 3.979 0 0-1.625-3.928-3.303-5.657 0 0-3.824-6.538-.363-12.452 0-.001.863-.336.519.579z"/>
    </g>
    <g fill="#3a2510">
        <path d="M440.937 435.224s22.965-5.123 40.085 15.065c0 0 7.155 5.695 11.28 6.607 0 0-10.879-7.666-15.004-13.98 0 0-17.336-16.175-37.779-9.676 0-.001-1.616 2.404 1.418 1.984z"/>
        <path d="M446.923 432.385s9.718-14.008 28.753-11.659c0 0 6.607-.48 9.253-2.021 0 0-9.56 1.258-14.858-.08 0 0-17.179-.104-24.879 13.398-.001.001.319 2.076 1.731.362zM465.244 436.385s-3.21 6.798 1.879 13.55c0 0 1.273 2.629 1.268 3.979 0 0-1.625-3.928-3.303-5.656 0 0-3.824-6.539-.363-12.453-.001 0 .863-.336.519.58z"/>
    </g>
    <g fill="#3a2510">
        <path d="M397.121 376.733s22.965-5.122 40.084 15.064c0 0 7.156 5.695 11.28 6.608 0 0-10.878-7.667-15.003-13.981 0 0-17.336-16.176-37.78-9.677 0 0-1.616 2.406 1.419 1.986z"/>
        <path d="M403.105 373.893s9.719-14.006 28.752-11.659c0 0 6.609-.479 9.254-2.019 0 0-9.559 1.258-14.857-.082 0 0-17.18-.104-24.879 13.4 0 0 .319 2.075 1.73.36zM421.427 377.895s-3.21 6.797 1.879 13.549c0 0 1.272 2.63 1.268 3.979 0 0-1.626-3.928-3.304-5.656 0 0-3.824-6.538-.363-12.453 0-.001.863-.336.52.581z"/>
    </g>
    <g fill="#3a2510">
        <path d="M280.795 376.31s5.12-22.965-15.068-40.083c0 0-5.695-7.156-6.609-11.279 0 0 7.668 10.877 13.982 15.002 0 0 16.176 17.333 9.68 37.778-.001 0-2.405 1.616-1.985-1.418z"/>
        <path d="M283.632 370.324s14.007-9.719 11.658-28.754c0 0 .479-6.607 2.018-9.253 0 0-1.257 9.56.082 14.858 0 0 .105 17.179-13.397 24.879 0 .001-2.074-.317-.361-1.73zM279.63 352.003s-6.797 3.21-13.548-1.878c0 0-2.63-1.272-3.98-1.268 0 0 3.929 1.626 5.658 3.304 0 0 6.538 3.824 12.452.361 0 .001.335-.862-.582-.519z"/>
    </g>
    <g fill="#3a2510">
        <path d="M456.841 246.553s22.965-5.123 40.083 15.064c0 0 7.155 5.695 11.28 6.607 0 0-10.877-7.665-15.003-13.98 0 0-17.337-16.175-37.78-9.676 0 .001-1.615 2.405 1.42 1.985z"/>
        <path d="M462.825 243.714s9.718-14.008 28.753-11.659c0 0 6.609-.48 9.254-2.021 0 0-9.561 1.258-14.858-.081 0 0-17.18-.104-24.879 13.4 0 0 .319 2.075 1.73.361zM481.146 247.715s-3.209 6.797 1.879 13.549c0 0 1.273 2.629 1.268 3.979 0 0-1.625-3.928-3.303-5.656 0 0-3.824-6.538-.362-12.453 0-.001.862-.336.518.581z"/>
    </g>
    <g fill="#3a2510">
        <path d="M328.211 272.09s22.965-5.122 40.084 15.064c0 0 7.156 5.695 11.281 6.608 0 0-10.879-7.667-15.004-13.981 0 0-17.336-16.176-37.779-9.677 0 .001-1.617 2.407 1.418 1.986z"/>
        <path d="M334.195 269.25s9.719-14.006 28.753-11.659c0 0 6.608-.479 9.255-2.02 0 0-9.561 1.258-14.859-.081 0 0-17.18-.104-24.879 13.4 0 .001.32 2.075 1.73.36zM352.517 273.251s-3.209 6.798 1.879 13.55c0 0 1.273 2.63 1.268 3.979 0 0-1.625-3.928-3.303-5.656 0 0-3.824-6.538-.363-12.453 0 0 .863-.336.519.58z"/>
    </g>
    <g fill="#3a2510">
        <path d="M361.705 236.451s-21.422-12.646-20.039-40.596c0 0-1.402-9.566-3.926-13.25 0 0 2.852 13.776 1.47 21.63 0 0 1.685 25.01 22.154 34.772 0 0 2.985-.686.341-2.556z"/>
        <path d="M344.648 215.324s10.197-4.035 11.515-16.303c0 0 1.268-4.069 2.62-5.501 0 0-2.188 5.805-2.125 9.319 0 0-2.451 10.776-12.037 13.621 0 .001-1.253-.503.027-1.136z"/>
    </g>
    <path d="M314.322 169.886s25.199-14.962 23.488-47.885c0 0 1.625-11.273 4.588-15.623 0 0-3.32 16.239-1.668 25.488 0 0-1.664 32.764-25.752 44.325 0 .001-3.767-4.095-.656-6.305z"
          fill="#3a2510"/>
    <path d="M335.933 140.356s-12.766.047-19.492-12.642c0 0-3.131-3.849-5.211-4.812 0 0 4.875 5.326 6.327 9.152 0 0 7.308 10.586 18.897 9.518.001 0 1.137-1.085-.521-1.216zM335.871 166.764s2.111 9.682 12.652 12.998c0 0 3.383 1.831 4.446 3.272 0 0-4.771-2.946-7.853-3.509 0 0-9.081-4.052-10.237-12.985.001 0 .617-1.012.992.224z"
          fill="#3a2510"/>
    <path d="M329.522 162.7s9.396 8.644 22.919 3.812c0 0 4.908-.73 7.092-.039 0 0-7.191.646-10.844 2.492 0 0-12.535 2.888-20.372-5.718 0 0-.105-1.568 1.205-.547zM339.455 132.162s10.863-.214 16.336-11.145c0 0 2.586-3.338 4.338-4.197 0 0-4.043 4.629-5.202 7.913 0 0-6.007 9.153-15.892 8.476 0 0-.988-.902.42-1.047zM322.867 135.518s3.438-4.458.798-10.213c0 0-.51-2.127-.29-3.113 0 0 .56 3.135 1.51 4.667 0 0 1.748 5.396-1.731 9.167-.001 0-.686.106-.287-.508z"
          fill="#3a2510"/>
    <g fill="#3a2510">
        <path d="M402.086 470.603s40.417 63.227 124.529 56.07c0 0 28.986 3.209 40.367 10.42 0 0-41.84-7.123-65.37-2.117 0 0-75.577-2.404-107.198-63.072 0 0 1.754-9.074 7.672-1.301z"/>
        <path d="M466.443 522.218s-.665-24.867 23.75-38.543c0 0 7.358-6.271 9.141-10.367 0 0-10.158 9.736-17.547 12.736 0 0-20.293 14.713-17.691 37.242-.001 0 2.167 2.167 2.347-1.068zM494.215 529.349s-4.013 24.551 18.333 41.396c0 0 6.444 7.205 7.656 11.506 0 0-8.75-11.018-15.665-14.988 0 0-18.124-17.316-12.506-39.289.001 0 2.442-1.851 2.182 1.375zM531.257 531.56s-2.302 14.389 7.466 21.926c0 0 2.805 3.209 3.318 5.109 0 0-3.803-4.9-6.832-6.686 0 0-7.902-7.725-5.317-17.381-.001.001 1.496-4.388 1.365-2.968z"/>
        <path d="M468.586 507.179s10.808 1.857 18.316-7.932c0 0 3.199-2.814 5.1-3.334 0 0-4.889 3.818-6.664 6.852 0 0-7.701 7.928-17.367 5.369-.001 0-.807-1.082.615-.955z"/>
    </g>
    <g fill="#3a2510">
        <path d="M286.462 504.732s9.991 22.783-7.466 44.654c0 0-4.451 8.582-4.557 13.047 0 0 5.737-12.846 11.449-18.41 0 0 13.249-21.279 2.344-41.166 0 0-2.823-1.187-1.77 1.875z"/>
        <path d="M322.88 467.933s-56.573 65.063-150.965 42.777c0 0-33.485-1.23-47.634 5.053 0 0 48.752-1.059 74.652 8.592 0 0 86.3 9.979 132.447-53.652.001 0-.468-10.608-8.5-2.77z"/>
        <path d="M241.051 515.769s4.938-28.15-20.509-47.801c0 0-7.307-8.365-8.645-13.318 0 0 9.906 12.773 17.799 17.426 0 0 20.59 20.137 13.843 45.305.001 0-2.828 2.093-2.488-1.612zM208.286 519.203s.432 28.578-27.8 43.963c0 0-8.537 7.105-10.639 11.787 0 0 11.8-11.047 20.328-14.396 0 0 23.51-16.633 20.822-42.551.001 0-2.462-2.516-2.711 1.197zM165.679 519.627s.332 12.596-12.037 19.52c0 0-3.729 3.174-4.631 5.25 0 0 5.146-4.93 8.889-6.449 0 0 10.283-7.449 8.969-18.861 0-.001-1.1-1.099-1.19.54z"/>
        <path d="M241.146 498.316s-12.596.295-19.484-12.094c0 0-3.162-3.738-5.234-4.648 0 0 4.914 5.162 6.422 8.91 0 0 7.418 10.303 18.834 9.023-.001 0 1.101-1.095-.538-1.191z"/>
    </g>
    <g fill="#3a2510">
        <path d="M295.847 432.205s-9.79 5.014-9.922 17.384c0 0-.872 4.184-2.084 5.742 0 0 1.624-6.004 1.223-9.506 0 0 1.406-10.993 10.699-14.759 0 .001 1.301.384.084 1.139z"/>
        <path d="M326.841 453.806s-18.75-25.946-54.396-20.855c0 0-12.424-.664-17.445-3.46 0 0 17.991 2.019 27.891-.685 0 0 32.246-.811 47.187 24.261-.001.001-.528 3.907-3.237.739z"/>
    </g>
    <g fill="#3a2510">
        <path d="M400.088 299.718s79.109-67.065 53.729-180.938c0 0-.974-40.294 6.795-57.217 0 0-2.007 58.623 9.209 89.921 0 0 5.983 124.433-60.734 180.821 0 0-18.55-23.044-8.999-32.587z"/>
        <path d="M459.123 212.91s57.004-3.435 83.416-61.996c0 0 12.875-18.078 21.887-22.971 0 0-20.242 25.171-25.633 42.667 0 0-29.604 49.344-81.646 47.881-.001 0-5.384-4.527 1.976-5.581zM467.406 170.462s-47.42-15.662-56.641-71.079c0 0-6.838-18.163-13.36-24.315 0 0 11.477 25.809 12.118 41.806 0 0 13.982 48.338 58.305 58.749 0 0 5.562-2.623-.422-5.161z"/>
        <path d="M431.479 154.905s-23.72 7.496-43.598-12.201c0 0-8.058-5.345-12.485-5.928 0 0 12.158 7.079 17.08 13.354 0 0 19.738 15.451 40.677 6.737 0 0 1.483-2.681-1.674-1.962zM459.619 105.928s24.074 6.267 42.912-14.426c0 0 7.771-5.752 12.164-6.562 0 0-11.779 7.694-16.371 14.214 0 0-18.918 16.445-40.277 8.818 0 .001-1.618-2.601 1.572-2.044zM467.302 157.117s18.684-4.887 24.293-25.677c0 0 3.296-6.73 6.018-8.917 0 0-5.354 9.524-6.203 15.569 0 0-7.161 18.004-24.464 20.971 0 .001-2.023-1.116.356-1.946zM484.503 212.711s13.37 13.932 34.261 8.7c0 0 7.482-.403 10.719.907 0 0-10.926-.033-16.619 2.17 0 0-19.211 2.522-30.234-11.141-.001.001-.011-2.309 1.873-.636zM447.444 264.137s13.372 13.932 34.263 8.699c0 0 7.48-.402 10.717.908 0 0-10.924-.033-16.619 2.172 0 0-19.209 2.521-30.232-11.143-.001.001-.013-2.309 1.871-.636zM414.007 115.14s18.682-4.886 24.293-25.676c0 0 3.295-6.731 6.018-8.917 0 0-5.354 9.523-6.205 15.569 0 0-7.161 18.005-24.465 20.97 0 0-2.021-1.116.359-1.946zM515.027 191.204s22.493 10.626 44.846-6.211c0 0 8.703-4.209 13.169-4.189 0 0-13.001 5.375-18.725 10.929 0 0-21.643 12.647-41.215 1.188 0 0-1.106-2.855 1.925-1.717zM458.892 84.326s10.521-3.103 12.938-15.199c0 0 1.63-3.938 3.105-5.243 0 0-2.701 5.583-2.957 9.091 0 0-3.412 10.511-13.215 12.48 0 0-1.203-.615.129-1.129zM406.73 96.804s8.386-7.069 5.736-19.118c0 0-.092-4.262.734-6.049 0 0-.229 6.198.947 9.512 0 0 1.102 10.996-7.082 16.741 0 0-1.349-.079-.335-1.086z"/>
        <path d="M487.703 106.474s7.586 7.921 19.443 4.513c0 0 4.246-.36 6.082.352 0 0-6.2.163-9.432 1.547 0 0-10.904 1.795-17.156-6.008 0-.001-.01-1.351 1.063-.404zM427.165 109.907s7.586 7.923 19.442 4.515c0 0 4.248-.362 6.084.351 0 0-6.201.163-9.434 1.547 0 0-10.903 1.796-17.155-6.008 0 0-.01-1.351 1.063-.405zM432.834 242.215s-7.56-7.988-19.469-4.644c0 0-4.261.337-6.099-.389 0 0 6.22-.125 9.468-1.494 0 0 10.946-1.735 17.17 6.127 0 0 0 1.357-1.07.4z"/>
        <path d="M420.8 278.028s19.641-25.279 4.748-58.064c0 0-2.851-12.11-1.575-17.717 0 0 3.112 17.836 8.486 26.579 0 0 9.828 30.721-10.042 52.1.001-.001-3.896.59-1.617-2.898z"/>
    </g>
    <g fill="#3a2510">
        <path d="M478.754 393.018s-40.602-29.075-32.897-84.723c0 0-1.116-19.377-5.511-27.191 0 0 3.268 28.055-.885 43.517 0 0-1.049 50.309 38.16 73.449 0 0 6.092-.847 1.133-5.052zM556.308 280.95s-15.279-19.63-3.729-45.118c0 0 2.207-9.413 1.215-13.768 0 0-2.408 13.862-6.578 20.66 0 0-7.619 23.879 7.834 40.479 0 0 3.032.457 1.258-2.253zM577.203 229.853s21.115 13.152 45.262-.989c0 0 9.131-3.176 13.566-2.641 0 0-13.536 3.837-19.863 8.692 0 0-22.957 10.063-41.076-3.579-.001 0-.769-2.965 2.111-1.483z"/>
        <path d="M447.007 346.784s24.211-5.722 31.184-32.822c0 0 4.179-8.718 7.682-11.488 0 0-6.813 12.31-7.822 20.221 0 0-9.029 23.383-31.476 26.632 0-.001-2.647-1.543.432-2.543zM491.428 399.55s11.324 22.149 39.306 22.465c0 0 9.463 1.981 12.988 4.725 0 0-13.578-3.684-21.502-2.78 0 0-24.861-3.198-33.364-24.225 0 0 .866-2.938 2.572-.185zM601.036 239.077s5.653 11.056 19.62 11.214c0 0 4.723.988 6.482 2.357 0 0-6.777-1.838-10.732-1.387 0 0-12.41-1.597-16.654-12.092 0 .001.432-1.465 1.284-.092z"/>
        <path d="M475.355 329.172s4.881 9.821 17.215 10.1c0 0 4.161.921 5.702 2.147 0 0-5.968-1.691-9.464-1.333 0 0-10.945-1.534-14.59-10.845 0 0 .399-1.292 1.137-.069zM522.531 353.543s70.034 26.95 133.523-28.684c0 0 25.244-14.603 38.686-15.543 0 0-37.917 19.07-53.895 37.055 0 0-62.286 42.872-123.722 12.768 0 0-3.968-8.348 5.408-5.596z"/>
        <path d="M604.959 356.948s-15.279-19.631-3.729-45.119c0 0 2.207-9.413 1.215-13.767 0 0-2.408 13.861-6.578 20.658 0 0-7.619 23.881 7.834 40.48 0 .001 3.031.458 1.258-2.252zM631.552 346.225s11.324 22.149 39.307 22.465c0 0 9.463 1.981 12.987 4.724 0 0-13.579-3.683-21.502-2.779 0 0-24.86-3.199-33.366-24.225 0-.001.868-2.938 2.574-.185zM664.486 329.172s4.882 9.821 17.215 10.1c0 0 4.162.921 5.703 2.147 0 0-5.969-1.691-9.465-1.333 0 0-10.945-1.534-14.59-10.845 0 0 .399-1.292 1.137-.069z"/>
        <path d="M597.766 343.568s9.806-4.912 10.048-17.247c0 0 .907-4.163 2.131-5.708 0 0-1.674 5.973-1.305 9.469 0 0-1.502 10.949-10.801 14.62 0-.001-1.292-.393-.073-1.134zM521.615 367.145s37.329 42.93 99.611 28.225c0 0 22.095-.811 31.431 3.335 0 0-32.168-.698-49.257 5.669 0 0-56.944 6.585-87.395-35.401.001-.001.309-7.001 5.61-1.828z"/>
        <path d="M575.609 398.708s-3.26-18.574 13.531-31.541c0 0 4.822-5.52 5.703-8.788 0 0-6.536 8.428-11.744 11.498 0 0-13.586 13.287-9.133 29.894 0 0 1.867 1.382 1.643-1.063zM597.228 400.974s-.285 18.856 18.344 29.009c0 0 5.632 4.688 7.02 7.777 0 0-7.786-7.289-13.413-9.5 0 0-15.513-10.974-13.738-28.075 0 0 1.622-1.66 1.787.789zM625.341 401.254s-.219 8.311 7.942 12.879c0 0 2.46 2.096 3.056 3.464 0 0-3.396-3.253-5.865-4.254 0 0-6.785-4.916-5.917-12.446 0 0 .725-.724.784.357z"/>
        <path d="M575.545 387.193s8.313.194 12.857-7.98c0 0 2.087-2.467 3.453-3.067 0 0-3.242 3.406-4.236 5.879 0 0-4.895 6.799-12.428 5.954 0 0-.726-.723.354-.786zM442.517 334.699s-7.637-7.872-19.472-4.389c0 0-4.245.389-6.085-.313 0 0 6.199-.203 9.422-1.607 0 0 10.893-1.865 17.195 5.898.001.001.014 1.352-1.06.411zM546.118 258.839s-7.636-7.872-19.471-4.39c0 0-4.244.389-6.085-.312 0 0 6.2-.203 9.422-1.607 0 0 10.894-1.865 17.195 5.897 0 .001.014 1.352-1.061.412z"/>
        <g>
            <path d="M532.261 310.504s-5.818-5.998-14.836-3.344c0 0-3.234.296-4.639-.238 0 0 4.727-.154 7.181-1.226 0 0 8.3-1.421 13.103 4.495 0 .001.012 1.03-.809.313z"/>
            <path d="M523.457 337.828s14.686-19.393 3.061-44.162c0 0-2.279-9.176-1.363-13.447 0 0 2.531 13.523 6.697 20.115 0 0 7.758 23.25-7.139 39.681 0 0-2.956.485-1.256-2.187z"/>
        </g>
        <path d="M398.982 425.215s129.987-32.275 165.877-178.603c0 0 21.965-47.188 40.656-62.32 0 0-35.922 66.691-40.879 109.34 0 0-44.533 133.255-165.174 152.116.001 0-17.001-14.963-.48-20.533z"/>
    </g>
    <g fill="#3a2510">
        <path d="M217.59 351.011s-70.035 26.952-133.523-28.683c0 0-25.246-14.603-38.686-15.543 0 0 37.916 19.07 53.895 37.054 0 0 62.285 42.873 123.721 12.77-.001 0 3.968-8.349-5.407-5.598zM157.542 275.518s31.263-47.79.036-103.932c0 0-6.822-21.119-5.371-31.269 0 0 8.119 31.263 18.941 46.029 0 0 21.924 53.202-10.309 94.089.001.001-6.845 1.616-3.297-4.917zM256.224 371.986s-22.117 44.773-78.279 46.179c0 0-18.939 4.239-25.94 9.841 0 0 27.155-7.768 43.085-6.173 0 0 49.816-7.107 66.305-49.546-.001 0-1.823-5.875-5.171-.301z"/>
        <path d="M155.674 168.077s-12.691-3.072-16.274-17.318c0 0-2.168-4.589-4-6.053 0 0 3.541 6.481 4.049 10.637 0 0 4.673 12.301 16.445 14.071 0 0 1.395-.802-.22-1.337zM136.758 251.186s-20.056-14.719-45.206-2.449c0 0-9.347 2.473-13.728 1.603 0 0 13.788-2.799 20.464-7.16 0 0 23.656-8.292 40.687 6.688 0 0 .542 3.013-2.217 1.318zM103.486 340.151s-12.676 21.404-40.624 19.984c0 0-9.567 1.392-13.255 3.91 0 0 13.781-2.834 21.633-1.441 0 0 25.012-1.65 34.803-22.108 0-.001-.684-2.986-2.557-.345zM160.267 364.808s-12.676 21.404-40.625 19.983c0 0-9.566 1.392-13.256 3.91 0 0 13.781-2.834 21.634-1.441 0 0 25.012-1.65 34.802-22.109 0 0-.683-2.986-2.555-.343zM123.832 214.676s-23.041 9.381-44.439-8.652c0 0-8.461-4.679-12.922-4.903 0 0 12.689 6.077 18.101 11.936 0 0 20.917 13.812 41.088 3.44-.001-.001 1.261-2.792-1.828-1.821zM175.535 231.349s24.21-5.721 31.184-32.822c0 0 4.178-8.718 7.682-11.487 0 0-6.813 12.309-7.822 20.221 0 0-9.029 23.382-31.477 26.631-.001-.001-2.647-1.543.433-2.543zM170.142 185.397s10.737-2.538 13.83-14.559c0 0 1.854-3.867 3.408-5.096 0 0-3.021 5.46-3.47 8.969 0 0-4.005 10.371-13.961 11.813.001 0-1.174-.684.193-1.127zM140.797 356.037s.926-24.859-23.344-38.791c0 0-7.293-6.347-9.031-10.461 0 0 10.055 9.841 17.411 12.92 0 0 20.138 14.924 17.3 37.426-.001 0-2.192 2.142-2.336-1.094zM124.223 201.336s15.019-19.831 3.132-45.164c0 0-2.333-9.383-1.396-13.75 0 0 2.59 13.828 6.851 20.57 0 0 7.934 23.777-7.3 40.58-.001 0-3.024.498-1.287-2.236zM216.265 287.941s-7.635-7.873-19.471-4.39c0 0-4.244.389-6.084-.313 0 0 6.199-.202 9.422-1.606 0 0 10.893-1.865 17.194 5.897.001 0 .014 1.352-1.061.412z"/>
        <path d="M204.709 323.798s19.272-25.449 4.019-57.956c0 0-2.992-12.039-1.79-17.645 0 0 3.323 17.746 8.789 26.397 0 0 10.182 30.511-9.368 52.072-.001.001-3.879.64-1.65-2.868zM274.382 410.917s-1.992 8.116 5.047 14.349c0 0 1.969 2.583 2.261 4.055 0 0-2.64-3.921-4.851-5.433 0 0-5.612-6.278-3.15-13.489 0 0 .866-.555.693.518z"/>
        <path d="M302.213 403.867s-24.231-2.145-39.046 20.86c0 0-6.563 6.805-10.668 8.298 0 0 10.112-9.328 13.485-16.359 0 0 15.58-18.92 37.413-15.024 0 0 1.983 2.246-1.184 2.225zM219.719 409.383s-13.898-19.342-40.431-15.624c0 0-9.242-.518-12.973-2.607 0 0 13.383 1.536 20.752-.456 0 0 23.992-.54 35.061 18.143.001-.001-.398 2.905-2.409.544z"/>
        <path d="M325.756 388.703S193.823 368.656 137.16 221.664c0 0-29.051-46.022-50.445-59.234 0 0 46.115 64.396 56.924 107.97 0 0 60.637 133.345 188.264 136.878 0 0 11.729-14.993-6.147-18.575z"/>
    </g>
    <path d="M271.203 904.547s69.775 55.471 152.828 0c0 0-55.461-281.008-10.476-584.201 0 0 21.706-82.134 43.591-101.854 0 0-72.555 138.829-111.994 74.74 0 0-35.525-67.069-34.51-188.99 0 0-12.325 149.55 4.93 238.289 0-.001 39.439 142.969-44.369 562.016z"
          fill="#3a2510"/>
</svg>