<?xml version="1.0" encoding="UTF-8" standalone="no"?>
<svg
   xmlns:dc="http://purl.org/dc/elements/1.1/"
   xmlns:cc="http://creativecommons.org/ns#"
   xmlns:rdf="http://www.w3.org/1999/02/22-rdf-syntax-ns#"
   xmlns:svg="http://www.w3.org/2000/svg"
   xmlns="http://www.w3.org/2000/svg"
   xmlns:sodipodi="http://sodipodi.sourceforge.net/DTD/sodipodi-0.dtd"
   xmlns:inkscape="http://www.inkscape.org/namespaces/inkscape"
   width="649.35901"
   height="867.63776"
   version="1.1"
   id="svg580"
   sodipodi:docname="emptyTree.svg"
   inkscape:version="0.92.1 r15371">
  <metadata
     id="metadata586">
    <rdf:RDF>
      <cc:Work
         rdf:about="">
        <dc:format>image/svg+xml</dc:format>
        <dc:type
           rdf:resource="http://purl.org/dc/dcmitype/StillImage" />
      </cc:Work>
    </rdf:RDF>
  </metadata>
  <defs
     id="defs584" />
  <sodipodi:namedview
     pagecolor="#ffffff"
     bordercolor="#666666"
     borderopacity="1"
     objecttolerance="10"
     gridtolerance="10"
     guidetolerance="10"
     inkscape:pageopacity="0"
     inkscape:pageshadow="2"
     inkscape:window-width="1920"
     inkscape:window-height="1013"
     id="namedview582"
     showgrid="false"
     inkscape:zoom="0.2540366"
     inkscape:cx="320.119"
     inkscape:cy="464.70078"
     inkscape:window-x="-9"
     inkscape:window-y="-9"
     inkscape:window-maximized="1"
     inkscape:current-layer="svg580" />
  <path
     d="m 288.396,195.308 c 0,0 49.105,-29.156 45.771,-93.311 0,0 3.168,-21.967 8.939,-30.441 0,0 -6.469,31.645 -3.25,49.667 0,0 -3.242,63.843 -50.18,86.372 0.001,0 -7.341,-7.982 -1.28,-12.287 z"
     id="path356"
     inkscape:connector-curvature="0"
     style="fill:#c47117" />
  <g
     id="g362"
     style="fill:#c47117"
     transform="translate(-45.381,-61.563)">
    <path
       d="m 309.158,201.089 c 0,0 -56.49,-8.372 -77.717,-69.005 0,0 -11.256,-19.129 -19.809,-24.785 0,0 17.979,26.834 21.83,44.731 0,0 25.207,51.729 77.182,54.79 0,0 5.754,-4.042 -1.486,-5.731 z"
       id="path358"
       inkscape:connector-curvature="0" />
    <path
       d="m 238.529,156.07 c 0,0 -23.83,7.138 -43.409,-12.856 0,0 -7.975,-5.465 -12.394,-6.115 0,0 12.051,7.262 16.877,13.609 0,0 19.504,15.746 40.57,7.35 0,-0.001 1.524,-2.66 -1.644,-1.988 z"
       id="path360"
       inkscape:connector-curvature="0" />
  </g>
  <g
     id="g368"
     style="fill:#c47117"
     transform="translate(-45.381,-61.563)">
    <path
       d="m 312.24,250.69 c 0,0 -41.271,-6.116 -56.779,-50.414 0,0 -8.223,-13.975 -14.471,-18.106 0,0 13.134,19.604 15.948,32.68 0,0 18.415,37.791 56.388,40.028 0,-10e-4 4.203,-2.954 -1.086,-4.188 z"
       id="path364"
       inkscape:connector-curvature="0" />
    <path
       d="m 260.638,217.8 c 0,0 -17.408,5.214 -31.713,-9.394 0,0 -5.826,-3.992 -9.055,-4.467 0,0 8.805,5.306 12.33,9.943 0,0 14.249,11.503 29.641,5.368 0,0.001 1.113,-1.941 -1.203,-1.45 z"
       id="path366"
       inkscape:connector-curvature="0" />
  </g>
  <g
     id="g374"
     style="fill:#c47117"
     transform="translate(-45.381,-61.563)">
    <path
       d="m 286.84,193.943 c 0,0 0.836,-27.323 -25.934,-42.455 0,0 -8.06,-6.922 -10,-11.431 0,0 11.121,10.741 19.227,14.071 0,0 22.237,16.253 19.281,40.999 0,0 -2.393,2.369 -2.574,-1.184 z"
       id="path370"
       inkscape:connector-curvature="0" />
    <path
       d="m 271.606,156.856 c 0,0 5.38,-10.622 -2.383,-21.539 0,0 -1.899,-4.22 -1.831,-6.356 0,0 2.4,6.292 4.982,9.104 0,0 5.768,10.521 0.029,19.735 10e-4,-0.001 -1.382,0.491 -0.797,-0.944 z"
       id="path372"
       inkscape:connector-curvature="0" />
  </g>
  <g
     id="g380"
     style="fill:#c47117"
     transform="translate(-45.381,-61.563)">
    <path
       d="m 500.374,200.346 c 0,0 18.054,-20.526 7.063,-49.246 0,0 -1.8,-10.47 -0.425,-15.181 0,0 1.729,15.364 5.854,23.096 0,0 6.782,26.695 -11.263,43.884 0,0 -3.353,0.302 -1.229,-2.553 z"
       id="path376"
       inkscape:connector-curvature="0" />
    <path
       d="m 512.263,162.056 c 0,0 10.914,-4.759 11.887,-18.119 0,0 1.225,-4.463 2.639,-6.065 0,0 -2.158,6.379 -1.959,10.191 0,0 -2.26,11.783 -12.553,15.229 0,-0.001 -1.381,-0.502 -0.014,-1.236 z"
       id="path378"
       inkscape:connector-curvature="0" />
  </g>
  <g
     id="g386"
     style="fill:#c47117"
     transform="translate(-45.381,-61.563)">
    <path
       d="m 293.23,302.516 c 0,0 -11.434,-6.309 -11.133,-20.996 0,0 -0.883,-4.998 -2.263,-6.893 0,0 1.706,7.186 1.101,11.327 0,0 1.266,13.098 12.154,17.908 10e-4,0 1.557,-0.405 0.141,-1.346 z"
       id="path382"
       inkscape:connector-curvature="0" />
    <path
       d="m 317.281,302.398 c 0,0 -23.584,7.909 -43.805,-11.438 0,0 -8.148,-5.202 -12.586,-5.707 0,0 12.28,6.864 17.312,13.052 0,0 20.006,15.104 40.788,6.023 0,0 1.435,-2.706 -1.709,-1.93 z"
       id="path384"
       inkscape:connector-curvature="0" />
  </g>
  <g
     id="g392"
     style="fill:#c47117"
     transform="translate(-45.381,-61.563)">
    <path
       d="m 253.615,541.57 c 0,0 -6.14,11.525 -20.83,11.439 0,0 -4.984,0.957 -6.858,2.363 0,0 7.159,-1.811 11.31,-1.266 0,0 13.078,-1.457 17.729,-12.416 -0.001,0 -0.431,-1.55 -1.351,-0.12 z"
       id="path388"
       inkscape:connector-curvature="0" />
    <path
       d="m 253.144,517.525 c 0,0 8.255,23.465 -10.793,43.967 0,0 -5.082,8.223 -5.523,12.668 0,0 6.686,-12.379 12.798,-17.5 0,0 14.808,-20.227 5.425,-40.873 -10e-4,0 -2.727,-1.397 -1.907,1.738 z"
       id="path390"
       inkscape:connector-curvature="0" />
  </g>
  <g
     id="g398"
     style="fill:#c47117"
     transform="translate(-45.381,-61.563)">
    <path
       d="m 222.767,438.477 c 0,0 -6.141,11.523 -20.831,11.439 0,0 -4.985,0.955 -6.858,2.363 0,0 7.159,-1.813 11.31,-1.268 0,0 13.077,-1.457 17.729,-12.415 -10e-4,10e-4 -0.43,-1.549 -1.35,-0.119 z"
       id="path394"
       inkscape:connector-curvature="0" />
    <path
       d="m 222.296,414.43 c 0,0 8.255,23.466 -10.794,43.966 0,0 -5.082,8.225 -5.522,12.67 0,0 6.685,-12.381 12.798,-17.502 0,0 14.808,-20.224 5.426,-40.873 -0.001,0.001 -2.73,-1.395 -1.908,1.739 z"
       id="path396"
       inkscape:connector-curvature="0" />
  </g>
  <g
     id="g404"
     style="fill:#c47117"
     transform="translate(-45.381,-61.563)">
    <path
       d="m 134.382,296.45 c 0,0 -11.203,-6.706 -10.387,-21.374 0,0 -0.707,-5.026 -2.02,-6.968 0,0 1.453,7.241 0.702,11.358 0,0 0.804,13.134 11.518,18.325 0.001,10e-4 1.57,-0.35 0.187,-1.341 z"
       id="path400"
       inkscape:connector-curvature="0" />
    <path
       d="m 158.423,297.179 c 0,0 -23.849,7.074 -43.375,-12.971 0,0 -7.961,-5.486 -12.378,-6.147 0,0 12.032,7.293 16.842,13.653 0,0 19.462,15.798 40.552,7.455 0,0 1.529,-2.655 -1.641,-1.99 z"
       id="path402"
       inkscape:connector-curvature="0" />
  </g>
  <g
     id="g410"
     style="fill:#c47117"
     transform="translate(-45.381,-61.563)">
    <path
       d="m 267.197,259.695 c 0,0 -13.037,-0.744 -19.117,-14.118 0,0 -2.957,-4.125 -5.021,-5.236 0,0 4.646,5.741 5.89,9.737 0,0 6.805,11.263 18.703,10.894 0,0 1.229,-1.04 -0.455,-1.277 z"
       id="path406"
       inkscape:connector-curvature="0" />
    <path
       d="m 288.832,249.19 c 0,0 -17.847,17.33 -44.442,8.627 0,0 -9.598,-1.166 -13.817,0.297 0,0 14.041,0.879 21.253,4.283 0,0 24.569,4.969 39.384,-12.204 -10e-4,0 0.122,-3.062 -2.378,-1.003 z"
       id="path408"
       inkscape:connector-curvature="0" />
  </g>
  <g
     id="g416"
     style="fill:#c47117"
     transform="translate(-45.381,-61.563)">
    <path
       d="m 312.589,111.59 c 0,0 7.735,-10.521 22.261,-8.322 0,0 5.07,-0.229 7.127,-1.352 0,0 -7.346,0.762 -11.375,-0.374 0,0 -13.15,-0.44 -19.33,9.734 -10e-4,0 0.2,1.595 1.317,0.314 z"
       id="path412"
       inkscape:connector-curvature="0" />
    <path
       d="m 309.594,135.454 c 0,0 -4.792,-24.41 17.009,-41.956 0,0 6.213,-7.407 7.289,-11.742 0,0 -8.396,11.288 -15.184,15.477 0,0 -17.564,17.883 -11.252,39.666 10e-4,0 2.499,1.773 2.138,-1.445 z"
       id="path414"
       inkscape:connector-curvature="0" />
  </g>
  <path
     d="m 330.386,189.224 c 0,0 4.115,18.866 24.658,25.327 0,0 6.588,3.568 8.662,6.377 0,0 -9.297,-5.739 -15.303,-6.837 0,0 -17.693,-7.895 -19.947,-25.305 10e-4,0.001 1.2,-1.974 1.93,0.438 z"
     id="path418"
     inkscape:connector-curvature="0"
     style="fill:#c47117" />
  <g
     id="g424"
     style="fill:#c47117"
     transform="translate(-45.381,-61.563)">
    <path
       d="m 525.463,442.636 c 0,0 -5.148,9.098 1.216,18.984 0,0 1.495,3.777 1.349,5.648 0,0 -1.85,-5.615 -3.999,-8.186 0,0 -4.631,-9.459 0.776,-17.307 -10e-4,0 1.23,-0.373 0.658,0.861 z"
       id="path420"
       inkscape:connector-curvature="0" />
    <path
       d="m 495.227,408.049 c 0,0 5.433,23.825 31.575,33.808 0,0 8.193,5.135 10.551,8.928 0,0 -11.465,-8.156 -19.211,-10.053 0,0 -23.98,-10.785 -24.678,-33.455 10e-4,0.001 1.116,-2.401 1.763,0.772 z"
       id="path422"
       inkscape:connector-curvature="0" />
  </g>
  <g
     id="g430"
     style="fill:#c47117"
     transform="translate(-45.381,-61.563)">
    <path
       d="m 589.562,470.445 c 0,0 -13.877,16.266 -4.942,38.59 0,0 1.532,8.168 0.512,11.867 0,0 -1.532,-11.994 -4.849,-17.99 0,0 -5.619,-20.795 8.289,-34.449 0,0 2.619,-0.274 0.99,1.982 z"
       id="path426"
       inkscape:connector-curvature="0" />
    <path
       d="m 542.301,389.234 c 0,0 1.644,49.953 50.254,80.167 0,0 14.454,13.496 17.712,22.029 0,0 -19.85,-20.836 -34.664,-27.656 0,0 -43.957,-30.981 -36.541,-76.774 0,-10e-4 3.174,-4.39 3.239,2.234 z"
       id="path428"
       inkscape:connector-curvature="0" />
  </g>
  <g
     id="g436"
     style="fill:#c47117"
     transform="translate(-45.381,-61.563)">
    <path
       d="m 111.324,447.556 c 0,0 13.877,16.266 4.943,38.588 0,0 -1.533,8.168 -0.512,11.869 0,0 1.533,-11.994 4.848,-17.99 0,0 5.621,-20.797 -8.288,-34.449 0,0 -2.618,-0.275 -0.991,1.982 z"
       id="path432"
       inkscape:connector-curvature="0" />
    <path
       d="m 158.586,366.344 c 0,0 -1.643,49.953 -50.254,80.167 0,0 -14.453,13.496 -17.712,22.029 0,0 19.849,-20.836 34.664,-27.656 0,0 43.958,-30.982 36.542,-76.775 0,0.001 -3.174,-4.388 -3.24,2.235 z"
       id="path434"
       inkscape:connector-curvature="0" />
  </g>
  <g
     id="g442"
     style="fill:#c47117"
     transform="translate(-45.381,-61.563)">
    <path
       d="m 461.865,465.892 c 0,0 -5.148,9.098 1.215,18.982 0,0 1.494,3.777 1.348,5.648 0,0 -1.85,-5.615 -3.999,-8.184 0,0 -4.631,-9.461 0.776,-17.307 0,0 1.23,-0.373 0.66,0.861 z"
       id="path438"
       inkscape:connector-curvature="0" />
    <path
       d="m 434.106,430.428 c 0,0 2.956,24.701 29.099,34.683 0,0 8.191,5.135 10.549,8.93 0,0 -11.465,-8.156 -19.211,-10.053 0,0 -22.215,-11.607 -22.914,-34.277 0,0 1.83,-2.456 2.477,0.717 z"
       id="path440"
       inkscape:connector-curvature="0" />
  </g>
  <g
     id="g448"
     style="fill:#c47117"
     transform="translate(-45.381,-61.563)">
    <path
       d="m 458.818,545.73 c 0,0 -5.148,9.1 1.215,18.984 0,0 1.496,3.777 1.35,5.648 0,0 -1.851,-5.615 -4,-8.186 0,0 -4.631,-9.459 0.776,-17.307 0,0 1.231,-0.371 0.659,0.861 z"
       id="path444"
       inkscape:connector-curvature="0" />
    <path
       d="m 431.06,510.267 c 0,0 2.955,24.701 29.098,34.684 0,0 8.192,5.135 10.55,8.928 0,0 -11.465,-8.154 -19.21,-10.051 0,0 -22.217,-11.607 -22.916,-34.277 0,-10e-4 1.831,-2.458 2.478,0.716 z"
       id="path446"
       inkscape:connector-curvature="0" />
  </g>
  <path
     d="m 318.017,181.306 c 0,0 18.308,16.843 44.66,7.428 0,0 9.563,-1.426 13.82,-0.076 0,0 -14.014,1.258 -21.131,4.854 0,0 -24.426,5.628 -39.697,-11.141 0,0.001 -0.207,-3.055 2.348,-1.065 z m -60.562,248.396 c 0,0 -10.879,-22.373 -38.849,-23.25 0,0 -9.421,-2.17 -12.89,-4.982 0,0 13.502,3.955 21.441,3.209 0,0 24.793,3.697 32.873,24.891 0.001,0 -0.925,2.919 -2.575,0.132 z m -108.774,24.524 c 0,0 -10.878,-22.373 -38.849,-23.248 0,0 -9.421,-2.172 -12.89,-4.984 0,0 13.502,3.955 21.441,3.211 0,0 24.793,3.695 32.873,24.889 0.001,-10e-4 -0.924,2.917 -2.575,0.132 z M 402.484,177.111 c 0,0 12.127,-21.721 -3.155,-45.164 0,0 -3.608,-8.968 -3.286,-13.423 0,0 4.48,13.337 9.634,19.423 0,0 11.149,22.449 -1.61,41.2 -0.001,0 -2.926,0.911 -1.583,-2.036 z M 170.476,280.47 c 0,0 24.037,-6.405 30.238,-33.694 0,0 3.929,-8.833 7.354,-11.701 0,0 -6.46,12.498 -7.246,20.435 0,0 -8.362,23.63 -30.707,27.514 0,-10e-4 -2.69,-1.467 0.361,-2.554 z M 337.371,121.8 c 0,0 21.17,-0.418 31.833,-21.717 0,0 5.04,-6.505 8.452,-8.182 0,0 -7.875,9.021 -10.135,15.422 0,0 -11.707,17.837 -30.967,16.515 0,0 -1.926,-1.758 0.817,-2.038 z"
     id="path450"
     inkscape:connector-curvature="0"
     style="fill:#c47117" />
  <g
     id="g456"
     style="fill:#c47117"
     transform="translate(-45.381,-61.563)">
    <path
       d="m 308.14,136.983 c 0,0 -29.359,-17.798 -27,-56.348 0,0 -1.783,-13.224 -5.206,-18.35 0,0 3.714,19.059 1.681,29.876 0,0 1.922,34.54 30.014,48.345 0,0 4.13,-0.901 0.511,-3.523 z"
       id="path452"
       inkscape:connector-curvature="0" />
    <path
       d="m 298.971,133.93 c 0,0 -24.382,4.936 -42.056,-16.76 0,0 -7.445,-6.169 -11.787,-7.218 0,0 11.339,8.329 15.568,15.09 0,0 17.986,17.458 39.731,11.015 10e-4,0 1.76,-2.509 -1.456,-2.127 z m -15.255,-22.717 c 0,0 10.244,-3.918 11.704,-16.168 0,0 1.315,-4.054 2.684,-5.471 0,0 -2.256,5.778 -2.234,9.294 0,0 -2.576,10.747 -12.194,13.48 -10e-4,0.001 -1.247,-0.518 0.04,-1.135 z"
       id="path454"
       inkscape:connector-curvature="0" />
  </g>
  <g
     id="g462"
     style="fill:#c47117"
     transform="translate(-45.381,-61.563)">
    <path
       d="m 567.098,278.426 c 0,0 22.965,-5.123 40.083,15.064 0,0 7.156,5.695 11.281,6.607 0,0 -10.878,-7.666 -15.004,-13.981 0,0 -17.336,-16.175 -37.779,-9.676 0,0 -1.615,2.406 1.419,1.986 z"
       id="path458"
       inkscape:connector-curvature="0" />
    <path
       d="m 573.082,275.586 c 0,0 9.719,-14.006 28.753,-11.659 0,0 6.61,-0.48 9.255,-2.021 0,0 -9.561,1.259 -14.859,-0.08 0,0 -17.18,-0.104 -24.878,13.4 -10e-4,10e-4 0.319,2.075 1.729,0.36 z m 18.322,4 c 0,0 -3.209,6.798 1.879,13.551 0,0 1.273,2.629 1.268,3.979 0,0 -1.625,-3.928 -3.303,-5.657 0,0 -3.824,-6.538 -0.363,-12.452 0,-0.001 0.863,-0.336 0.519,0.579 z"
       id="path460"
       inkscape:connector-curvature="0" />
  </g>
  <g
     id="g468"
     style="fill:#c47117"
     transform="translate(-45.381,-61.563)">
    <path
       d="m 440.937,435.224 c 0,0 22.965,-5.123 40.085,15.065 0,0 7.155,5.695 11.28,6.607 0,0 -10.879,-7.666 -15.004,-13.98 0,0 -17.336,-16.175 -37.779,-9.676 0,-0.001 -1.616,2.404 1.418,1.984 z"
       id="path464"
       inkscape:connector-curvature="0" />
    <path
       d="m 446.923,432.385 c 0,0 9.718,-14.008 28.753,-11.659 0,0 6.607,-0.48 9.253,-2.021 0,0 -9.56,1.258 -14.858,-0.08 0,0 -17.179,-0.104 -24.879,13.398 -0.001,10e-4 0.319,2.076 1.731,0.362 z m 18.321,4 c 0,0 -3.21,6.798 1.879,13.55 0,0 1.273,2.629 1.268,3.979 0,0 -1.625,-3.928 -3.303,-5.656 0,0 -3.824,-6.539 -0.363,-12.453 -0.001,0 0.863,-0.336 0.519,0.58 z"
       id="path466"
       inkscape:connector-curvature="0" />
  </g>
  <g
     id="g474"
     style="fill:#c47117"
     transform="translate(-45.381,-61.563)">
    <path
       d="m 397.121,376.733 c 0,0 22.965,-5.122 40.084,15.064 0,0 7.156,5.695 11.28,6.608 0,0 -10.878,-7.667 -15.003,-13.981 0,0 -17.336,-16.176 -37.78,-9.677 0,0 -1.616,2.406 1.419,1.986 z"
       id="path470"
       inkscape:connector-curvature="0" />
    <path
       d="m 403.105,373.893 c 0,0 9.719,-14.006 28.752,-11.659 0,0 6.609,-0.479 9.254,-2.019 0,0 -9.559,1.258 -14.857,-0.082 0,0 -17.18,-0.104 -24.879,13.4 0,0 0.319,2.075 1.73,0.36 z m 18.322,4.002 c 0,0 -3.21,6.797 1.879,13.549 0,0 1.272,2.63 1.268,3.979 0,0 -1.626,-3.928 -3.304,-5.656 0,0 -3.824,-6.538 -0.363,-12.453 0,-0.001 0.863,-0.336 0.52,0.581 z"
       id="path472"
       inkscape:connector-curvature="0" />
  </g>
  <g
     id="g480"
     style="fill:#c47117"
     transform="translate(-45.381,-61.563)">
    <path
       d="m 280.795,376.31 c 0,0 5.12,-22.965 -15.068,-40.083 0,0 -5.695,-7.156 -6.609,-11.279 0,0 7.668,10.877 13.982,15.002 0,0 16.176,17.333 9.68,37.778 -10e-4,0 -2.405,1.616 -1.985,-1.418 z"
       id="path476"
       inkscape:connector-curvature="0" />
    <path
       d="m 283.632,370.324 c 0,0 14.007,-9.719 11.658,-28.754 0,0 0.479,-6.607 2.018,-9.253 0,0 -1.257,9.56 0.082,14.858 0,0 0.105,17.179 -13.397,24.879 0,0.001 -2.074,-0.317 -0.361,-1.73 z m -4.002,-18.321 c 0,0 -6.797,3.21 -13.548,-1.878 0,0 -2.63,-1.272 -3.98,-1.268 0,0 3.929,1.626 5.658,3.304 0,0 6.538,3.824 12.452,0.361 0,0.001 0.335,-0.862 -0.582,-0.519 z"
       id="path478"
       inkscape:connector-curvature="0" />
  </g>
  <g
     id="g486"
     style="fill:#c47117"
     transform="translate(-45.381,-61.563)">
    <path
       d="m 456.841,246.553 c 0,0 22.965,-5.123 40.083,15.064 0,0 7.155,5.695 11.28,6.607 0,0 -10.877,-7.665 -15.003,-13.98 0,0 -17.337,-16.175 -37.78,-9.676 0,10e-4 -1.615,2.405 1.42,1.985 z"
       id="path482"
       inkscape:connector-curvature="0" />
    <path
       d="m 462.825,243.714 c 0,0 9.718,-14.008 28.753,-11.659 0,0 6.609,-0.48 9.254,-2.021 0,0 -9.561,1.258 -14.858,-0.081 0,0 -17.18,-0.104 -24.879,13.4 0,0 0.319,2.075 1.73,0.361 z m 18.321,4.001 c 0,0 -3.209,6.797 1.879,13.549 0,0 1.273,2.629 1.268,3.979 0,0 -1.625,-3.928 -3.303,-5.656 0,0 -3.824,-6.538 -0.362,-12.453 0,-10e-4 0.862,-0.336 0.518,0.581 z"
       id="path484"
       inkscape:connector-curvature="0" />
  </g>
  <g
     id="g492"
     style="fill:#c47117"
     transform="translate(-45.381,-61.563)">
    <path
       d="m 328.211,272.09 c 0,0 22.965,-5.122 40.084,15.064 0,0 7.156,5.695 11.281,6.608 0,0 -10.879,-7.667 -15.004,-13.981 0,0 -17.336,-16.176 -37.779,-9.677 0,0.001 -1.617,2.407 1.418,1.986 z"
       id="path488"
       inkscape:connector-curvature="0" />
    <path
       d="m 334.195,269.25 c 0,0 9.719,-14.006 28.753,-11.659 0,0 6.608,-0.479 9.255,-2.02 0,0 -9.561,1.258 -14.859,-0.081 0,0 -17.18,-0.104 -24.879,13.4 0,0.001 0.32,2.075 1.73,0.36 z m 18.322,4.001 c 0,0 -3.209,6.798 1.879,13.55 0,0 1.273,2.63 1.268,3.979 0,0 -1.625,-3.928 -3.303,-5.656 0,0 -3.824,-6.538 -0.363,-12.453 0,0 0.863,-0.336 0.519,0.58 z"
       id="path490"
       inkscape:connector-curvature="0" />
  </g>
  <g
     id="g498"
     style="fill:#c47117"
     transform="translate(-45.381,-61.563)">
    <path
       d="m 361.705,236.451 c 0,0 -21.422,-12.646 -20.039,-40.596 0,0 -1.402,-9.566 -3.926,-13.25 0,0 2.852,13.776 1.47,21.63 0,0 1.685,25.01 22.154,34.772 0,0 2.985,-0.686 0.341,-2.556 z"
       id="path494"
       inkscape:connector-curvature="0" />
    <path
       d="m 344.648,215.324 c 0,0 10.197,-4.035 11.515,-16.303 0,0 1.268,-4.069 2.62,-5.501 0,0 -2.188,5.805 -2.125,9.319 0,0 -2.451,10.776 -12.037,13.621 0,0.001 -1.253,-0.503 0.027,-1.136 z"
       id="path496"
       inkscape:connector-curvature="0" />
  </g>
  <path
     d="m 268.941,108.323 c 0,0 25.199,-14.962 23.488,-47.885 0,0 1.625,-11.273 4.588,-15.623 0,0 -3.32,16.239 -1.668,25.488 0,0 -1.664,32.764 -25.752,44.325 0,0.001 -3.767,-4.095 -0.656,-6.305 z"
     id="path500"
     inkscape:connector-curvature="0"
     style="fill:#c47117" />
  <path
     d="m 290.552,78.793 c 0,0 -12.766,0.047 -19.492,-12.642 0,0 -3.131,-3.849 -5.211,-4.812 0,0 4.875,5.326 6.327,9.152 0,0 7.308,10.586 18.897,9.518 0.001,0 1.137,-1.085 -0.521,-1.216 z m -0.062,26.408 c 0,0 2.111,9.682 12.652,12.998 0,0 3.383,1.831 4.446,3.272 0,0 -4.771,-2.946 -7.853,-3.509 0,0 -9.081,-4.052 -10.237,-12.985 0.001,0 0.617,-1.012 0.992,0.224 z"
     id="path502"
     inkscape:connector-curvature="0"
     style="fill:#c47117" />
  <path
     d="m 284.141,101.137 c 0,0 9.396,8.644 22.919,3.812 0,0 4.908,-0.73 7.092,-0.039 0,0 -7.191,0.646 -10.844,2.492 0,0 -12.535,2.888 -20.372,-5.718 0,0 -0.105,-1.568 1.205,-0.547 z m 9.933,-30.538 c 0,0 10.863,-0.214 16.336,-11.145 0,0 2.586,-3.338 4.338,-4.197 0,0 -4.043,4.629 -5.202,7.913 0,0 -6.007,9.153 -15.892,8.476 0,0 -0.988,-0.902 0.42,-1.047 z m -16.588,3.356 c 0,0 3.438,-4.458 0.798,-10.213 0,0 -0.51,-2.127 -0.29,-3.113 0,0 0.56,3.135 1.51,4.667 0,0 1.748,5.396 -1.731,9.167 -0.001,0 -0.686,0.106 -0.287,-0.508 z"
     id="path504"
     inkscape:connector-curvature="0"
     style="fill:#c47117" />
  <g
     id="g512"
     style="fill:#c47117"
     transform="translate(-45.381,-61.563)">
    <path
       d="m 402.086,470.603 c 0,0 40.417,63.227 124.529,56.07 0,0 28.986,3.209 40.367,10.42 0,0 -41.84,-7.123 -65.37,-2.117 0,0 -75.577,-2.404 -107.198,-63.072 0,0 1.754,-9.074 7.672,-1.301 z"
       id="path506"
       inkscape:connector-curvature="0" />
    <path
       d="m 466.443,522.218 c 0,0 -0.665,-24.867 23.75,-38.543 0,0 7.358,-6.271 9.141,-10.367 0,0 -10.158,9.736 -17.547,12.736 0,0 -20.293,14.713 -17.691,37.242 -10e-4,0 2.167,2.167 2.347,-1.068 z m 27.772,7.131 c 0,0 -4.013,24.551 18.333,41.396 0,0 6.444,7.205 7.656,11.506 0,0 -8.75,-11.018 -15.665,-14.988 0,0 -18.124,-17.316 -12.506,-39.289 10e-4,0 2.442,-1.851 2.182,1.375 z m 37.042,2.211 c 0,0 -2.302,14.389 7.466,21.926 0,0 2.805,3.209 3.318,5.109 0,0 -3.803,-4.9 -6.832,-6.686 0,0 -7.902,-7.725 -5.317,-17.381 -0.001,10e-4 1.496,-4.388 1.365,-2.968 z"
       id="path508"
       inkscape:connector-curvature="0" />
    <path
       d="m 468.586,507.179 c 0,0 10.808,1.857 18.316,-7.932 0,0 3.199,-2.814 5.1,-3.334 0,0 -4.889,3.818 -6.664,6.852 0,0 -7.701,7.928 -17.367,5.369 -10e-4,0 -0.807,-1.082 0.615,-0.955 z"
       id="path510"
       inkscape:connector-curvature="0" />
  </g>
  <g
     id="g522"
     style="fill:#c47117"
     transform="translate(-45.381,-61.563)">
    <path
       d="m 286.462,504.732 c 0,0 9.991,22.783 -7.466,44.654 0,0 -4.451,8.582 -4.557,13.047 0,0 5.737,-12.846 11.449,-18.41 0,0 13.249,-21.279 2.344,-41.166 0,0 -2.823,-1.187 -1.77,1.875 z"
       id="path514"
       inkscape:connector-curvature="0" />
    <path
       d="m 322.88,467.933 c 0,0 -56.573,65.063 -150.965,42.777 0,0 -33.485,-1.23 -47.634,5.053 0,0 48.752,-1.059 74.652,8.592 0,0 86.3,9.979 132.447,-53.652 10e-4,0 -0.468,-10.608 -8.5,-2.77 z"
       id="path516"
       inkscape:connector-curvature="0" />
    <path
       d="m 241.051,515.769 c 0,0 4.938,-28.15 -20.509,-47.801 0,0 -7.307,-8.365 -8.645,-13.318 0,0 9.906,12.773 17.799,17.426 0,0 20.59,20.137 13.843,45.305 0.001,0 -2.828,2.093 -2.488,-1.612 z m -32.765,3.434 c 0,0 0.432,28.578 -27.8,43.963 0,0 -8.537,7.105 -10.639,11.787 0,0 11.8,-11.047 20.328,-14.396 0,0 23.51,-16.633 20.822,-42.551 10e-4,0 -2.462,-2.516 -2.711,1.197 z m -42.607,0.424 c 0,0 0.332,12.596 -12.037,19.52 0,0 -3.729,3.174 -4.631,5.25 0,0 5.146,-4.93 8.889,-6.449 0,0 10.283,-7.449 8.969,-18.861 0,-10e-4 -1.1,-1.099 -1.19,0.54 z"
       id="path518"
       inkscape:connector-curvature="0" />
    <path
       d="m 241.146,498.316 c 0,0 -12.596,0.295 -19.484,-12.094 0,0 -3.162,-3.738 -5.234,-4.648 0,0 4.914,5.162 6.422,8.91 0,0 7.418,10.303 18.834,9.023 -0.001,0 1.101,-1.095 -0.538,-1.191 z"
       id="path520"
       inkscape:connector-curvature="0" />
  </g>
  <g
     id="g528"
     style="fill:#c47117"
     transform="translate(-45.381,-61.563)">
    <path
       d="m 295.847,432.205 c 0,0 -9.79,5.014 -9.922,17.384 0,0 -0.872,4.184 -2.084,5.742 0,0 1.624,-6.004 1.223,-9.506 0,0 1.406,-10.993 10.699,-14.759 0,0.001 1.301,0.384 0.084,1.139 z"
       id="path524"
       inkscape:connector-curvature="0" />
    <path
       d="m 326.841,453.806 c 0,0 -18.75,-25.946 -54.396,-20.855 0,0 -12.424,-0.664 -17.445,-3.46 0,0 17.991,2.019 27.891,-0.685 0,0 32.246,-0.811 47.187,24.261 -10e-4,10e-4 -0.528,3.907 -3.237,0.739 z"
       id="path526"
       inkscape:connector-curvature="0" />
  </g>
  <g
     id="g540"
     style="fill:#c47117"
     transform="translate(-45.381,-61.563)">
    <path
       d="m 400.088,299.718 c 0,0 79.109,-67.065 53.729,-180.938 0,0 -0.974,-40.294 6.795,-57.217 0,0 -2.007,58.623 9.209,89.921 0,0 5.983,124.433 -60.734,180.821 0,0 -18.55,-23.044 -8.999,-32.587 z"
       id="path530"
       inkscape:connector-curvature="0" />
    <path
       d="m 459.123,212.91 c 0,0 57.004,-3.435 83.416,-61.996 0,0 12.875,-18.078 21.887,-22.971 0,0 -20.242,25.171 -25.633,42.667 0,0 -29.604,49.344 -81.646,47.881 -10e-4,0 -5.384,-4.527 1.976,-5.581 z m 8.283,-42.448 c 0,0 -47.42,-15.662 -56.641,-71.079 0,0 -6.838,-18.163 -13.36,-24.315 0,0 11.477,25.809 12.118,41.806 0,0 13.982,48.338 58.305,58.749 0,0 5.562,-2.623 -0.422,-5.161 z"
       id="path532"
       inkscape:connector-curvature="0" />
    <path
       d="m 431.479,154.905 c 0,0 -23.72,7.496 -43.598,-12.201 0,0 -8.058,-5.345 -12.485,-5.928 0,0 12.158,7.079 17.08,13.354 0,0 19.738,15.451 40.677,6.737 0,0 1.483,-2.681 -1.674,-1.962 z m 28.14,-48.977 c 0,0 24.074,6.267 42.912,-14.426 0,0 7.771,-5.752 12.164,-6.562 0,0 -11.779,7.694 -16.371,14.214 0,0 -18.918,16.445 -40.277,8.818 0,0.001 -1.618,-2.601 1.572,-2.044 z m 7.683,51.189 c 0,0 18.684,-4.887 24.293,-25.677 0,0 3.296,-6.73 6.018,-8.917 0,0 -5.354,9.524 -6.203,15.569 0,0 -7.161,18.004 -24.464,20.971 0,0.001 -2.023,-1.116 0.356,-1.946 z m 17.201,55.594 c 0,0 13.37,13.932 34.261,8.7 0,0 7.482,-0.403 10.719,0.907 0,0 -10.926,-0.033 -16.619,2.17 0,0 -19.211,2.522 -30.234,-11.141 -10e-4,0.001 -0.011,-2.309 1.873,-0.636 z m -37.059,51.426 c 0,0 13.372,13.932 34.263,8.699 0,0 7.48,-0.402 10.717,0.908 0,0 -10.924,-0.033 -16.619,2.172 0,0 -19.209,2.521 -30.232,-11.143 -10e-4,10e-4 -0.013,-2.309 1.871,-0.636 z M 414.007,115.14 c 0,0 18.682,-4.886 24.293,-25.676 0,0 3.295,-6.731 6.018,-8.917 0,0 -5.354,9.523 -6.205,15.569 0,0 -7.161,18.005 -24.465,20.97 0,0 -2.021,-1.116 0.359,-1.946 z m 101.02,76.064 c 0,0 22.493,10.626 44.846,-6.211 0,0 8.703,-4.209 13.169,-4.189 0,0 -13.001,5.375 -18.725,10.929 0,0 -21.643,12.647 -41.215,1.188 0,0 -1.106,-2.855 1.925,-1.717 z M 458.892,84.326 c 0,0 10.521,-3.103 12.938,-15.199 0,0 1.63,-3.938 3.105,-5.243 0,0 -2.701,5.583 -2.957,9.091 0,0 -3.412,10.511 -13.215,12.48 0,0 -1.203,-0.615 0.129,-1.129 z M 406.73,96.804 c 0,0 8.386,-7.069 5.736,-19.118 0,0 -0.092,-4.262 0.734,-6.049 0,0 -0.229,6.198 0.947,9.512 0,0 1.102,10.996 -7.082,16.741 0,0 -1.349,-0.079 -0.335,-1.086 z"
       id="path534"
       inkscape:connector-curvature="0" />
    <path
       d="m 487.703,106.474 c 0,0 7.586,7.921 19.443,4.513 0,0 4.246,-0.36 6.082,0.352 0,0 -6.2,0.163 -9.432,1.547 0,0 -10.904,1.795 -17.156,-6.008 0,-0.001 -0.01,-1.351 1.063,-0.404 z m -60.538,3.433 c 0,0 7.586,7.923 19.442,4.515 0,0 4.248,-0.362 6.084,0.351 0,0 -6.201,0.163 -9.434,1.547 0,0 -10.903,1.796 -17.155,-6.008 0,0 -0.01,-1.351 1.063,-0.405 z m 5.669,132.308 c 0,0 -7.56,-7.988 -19.469,-4.644 0,0 -4.261,0.337 -6.099,-0.389 0,0 6.22,-0.125 9.468,-1.494 0,0 10.946,-1.735 17.17,6.127 0,0 0,1.357 -1.07,0.4 z"
       id="path536"
       inkscape:connector-curvature="0" />
    <path
       d="m 420.8,278.028 c 0,0 19.641,-25.279 4.748,-58.064 0,0 -2.851,-12.11 -1.575,-17.717 0,0 3.112,17.836 8.486,26.579 0,0 9.828,30.721 -10.042,52.1 0.001,-10e-4 -3.896,0.59 -1.617,-2.898 z"
       id="path538"
       inkscape:connector-curvature="0" />
  </g>
  <g
     id="g564"
     style="fill:#c47117"
     transform="translate(-45.381,-61.563)">
    <path
       d="m 478.754,393.018 c 0,0 -40.602,-29.075 -32.897,-84.723 0,0 -1.116,-19.377 -5.511,-27.191 0,0 3.268,28.055 -0.885,43.517 0,0 -1.049,50.309 38.16,73.449 0,0 6.092,-0.847 1.133,-5.052 z M 556.308,280.95 c 0,0 -15.279,-19.63 -3.729,-45.118 0,0 2.207,-9.413 1.215,-13.768 0,0 -2.408,13.862 -6.578,20.66 0,0 -7.619,23.879 7.834,40.479 0,0 3.032,0.457 1.258,-2.253 z m 20.895,-51.097 c 0,0 21.115,13.152 45.262,-0.989 0,0 9.131,-3.176 13.566,-2.641 0,0 -13.536,3.837 -19.863,8.692 0,0 -22.957,10.063 -41.076,-3.579 -10e-4,0 -0.769,-2.965 2.111,-1.483 z"
       id="path542"
       inkscape:connector-curvature="0" />
    <path
       d="m 447.007,346.784 c 0,0 24.211,-5.722 31.184,-32.822 0,0 4.179,-8.718 7.682,-11.488 0,0 -6.813,12.31 -7.822,20.221 0,0 -9.029,23.383 -31.476,26.632 0,-10e-4 -2.647,-1.543 0.432,-2.543 z m 44.421,52.766 c 0,0 11.324,22.149 39.306,22.465 0,0 9.463,1.981 12.988,4.725 0,0 -13.578,-3.684 -21.502,-2.78 0,0 -24.861,-3.198 -33.364,-24.225 0,0 0.866,-2.938 2.572,-0.185 z M 601.036,239.077 c 0,0 5.653,11.056 19.62,11.214 0,0 4.723,0.988 6.482,2.357 0,0 -6.777,-1.838 -10.732,-1.387 0,0 -12.41,-1.597 -16.654,-12.092 0,10e-4 0.432,-1.465 1.284,-0.092 z"
       id="path544"
       inkscape:connector-curvature="0" />
    <path
       d="m 475.355,329.172 c 0,0 4.881,9.821 17.215,10.1 0,0 4.161,0.921 5.702,2.147 0,0 -5.968,-1.691 -9.464,-1.333 0,0 -10.945,-1.534 -14.59,-10.845 0,0 0.399,-1.292 1.137,-0.069 z m 47.176,24.371 c 0,0 70.034,26.95 133.523,-28.684 0,0 25.244,-14.603 38.686,-15.543 0,0 -37.917,19.07 -53.895,37.055 0,0 -62.286,42.872 -123.722,12.768 0,0 -3.968,-8.348 5.408,-5.596 z"
       id="path546"
       inkscape:connector-curvature="0" />
    <path
       d="m 604.959,356.948 c 0,0 -15.279,-19.631 -3.729,-45.119 0,0 2.207,-9.413 1.215,-13.767 0,0 -2.408,13.861 -6.578,20.658 0,0 -7.619,23.881 7.834,40.48 0,0.001 3.031,0.458 1.258,-2.252 z m 26.593,-10.723 c 0,0 11.324,22.149 39.307,22.465 0,0 9.463,1.981 12.987,4.724 0,0 -13.579,-3.683 -21.502,-2.779 0,0 -24.86,-3.199 -33.366,-24.225 0,-0.001 0.868,-2.938 2.574,-0.185 z m 32.934,-17.053 c 0,0 4.882,9.821 17.215,10.1 0,0 4.162,0.921 5.703,2.147 0,0 -5.969,-1.691 -9.465,-1.333 0,0 -10.945,-1.534 -14.59,-10.845 0,0 0.399,-1.292 1.137,-0.069 z"
       id="path548"
       inkscape:connector-curvature="0" />
    <path
       d="m 597.766,343.568 c 0,0 9.806,-4.912 10.048,-17.247 0,0 0.907,-4.163 2.131,-5.708 0,0 -1.674,5.973 -1.305,9.469 0,0 -1.502,10.949 -10.801,14.62 0,-10e-4 -1.292,-0.393 -0.073,-1.134 z m -76.151,23.577 c 0,0 37.329,42.93 99.611,28.225 0,0 22.095,-0.811 31.431,3.335 0,0 -32.168,-0.698 -49.257,5.669 0,0 -56.944,6.585 -87.395,-35.401 10e-4,-0.001 0.309,-7.001 5.61,-1.828 z"
       id="path550"
       inkscape:connector-curvature="0" />
    <path
       d="m 575.609,398.708 c 0,0 -3.26,-18.574 13.531,-31.541 0,0 4.822,-5.52 5.703,-8.788 0,0 -6.536,8.428 -11.744,11.498 0,0 -13.586,13.287 -9.133,29.894 0,0 1.867,1.382 1.643,-1.063 z m 21.619,2.266 c 0,0 -0.285,18.856 18.344,29.009 0,0 5.632,4.688 7.02,7.777 0,0 -7.786,-7.289 -13.413,-9.5 0,0 -15.513,-10.974 -13.738,-28.075 0,0 1.622,-1.66 1.787,0.789 z m 28.113,0.28 c 0,0 -0.219,8.311 7.942,12.879 0,0 2.46,2.096 3.056,3.464 0,0 -3.396,-3.253 -5.865,-4.254 0,0 -6.785,-4.916 -5.917,-12.446 0,0 0.725,-0.724 0.784,0.357 z"
       id="path552"
       inkscape:connector-curvature="0" />
    <path
       d="m 575.545,387.193 c 0,0 8.313,0.194 12.857,-7.98 0,0 2.087,-2.467 3.453,-3.067 0,0 -3.242,3.406 -4.236,5.879 0,0 -4.895,6.799 -12.428,5.954 0,0 -0.726,-0.723 0.354,-0.786 z M 442.517,334.699 c 0,0 -7.637,-7.872 -19.472,-4.389 0,0 -4.245,0.389 -6.085,-0.313 0,0 6.199,-0.203 9.422,-1.607 0,0 10.893,-1.865 17.195,5.898 10e-4,10e-4 0.014,1.352 -1.06,0.411 z m 103.601,-75.86 c 0,0 -7.636,-7.872 -19.471,-4.39 0,0 -4.244,0.389 -6.085,-0.312 0,0 6.2,-0.203 9.422,-1.607 0,0 10.894,-1.865 17.195,5.897 0,10e-4 0.014,1.352 -1.061,0.412 z"
       id="path554"
       inkscape:connector-curvature="0" />
    <g
       id="g560">
      <path
         d="m 532.261,310.504 c 0,0 -5.818,-5.998 -14.836,-3.344 0,0 -3.234,0.296 -4.639,-0.238 0,0 4.727,-0.154 7.181,-1.226 0,0 8.3,-1.421 13.103,4.495 0,0.001 0.012,1.03 -0.809,0.313 z"
         id="path556"
         inkscape:connector-curvature="0" />
      <path
         d="m 523.457,337.828 c 0,0 14.686,-19.393 3.061,-44.162 0,0 -2.279,-9.176 -1.363,-13.447 0,0 2.531,13.523 6.697,20.115 0,0 7.758,23.25 -7.139,39.681 0,0 -2.956,0.485 -1.256,-2.187 z"
         id="path558"
         inkscape:connector-curvature="0" />
    </g>
    <path
       d="m 398.982,425.215 c 0,0 129.987,-32.275 165.877,-178.603 0,0 21.965,-47.188 40.656,-62.32 0,0 -35.922,66.691 -40.879,109.34 0,0 -44.533,133.255 -165.174,152.116 0.001,0 -17.001,-14.963 -0.48,-20.533 z"
       id="path562"
       inkscape:connector-curvature="0" />
  </g>
  <g
     id="g576"
     style="fill:#c47117"
     transform="translate(-45.381,-61.563)">
    <path
       d="m 217.59,351.011 c 0,0 -70.035,26.952 -133.523,-28.683 0,0 -25.246,-14.603 -38.686,-15.543 0,0 37.916,19.07 53.895,37.054 0,0 62.285,42.873 123.721,12.77 -0.001,0 3.968,-8.349 -5.407,-5.598 z m -60.048,-75.493 c 0,0 31.263,-47.79 0.036,-103.932 0,0 -6.822,-21.119 -5.371,-31.269 0,0 8.119,31.263 18.941,46.029 0,0 21.924,53.202 -10.309,94.089 0.001,10e-4 -6.845,1.616 -3.297,-4.917 z m 98.682,96.468 c 0,0 -22.117,44.773 -78.279,46.179 0,0 -18.939,4.239 -25.94,9.841 0,0 27.155,-7.768 43.085,-6.173 0,0 49.816,-7.107 66.305,-49.546 -10e-4,0 -1.823,-5.875 -5.171,-0.301 z"
       id="path566"
       inkscape:connector-curvature="0" />
    <path
       d="m 155.674,168.077 c 0,0 -12.691,-3.072 -16.274,-17.318 0,0 -2.168,-4.589 -4,-6.053 0,0 3.541,6.481 4.049,10.637 0,0 4.673,12.301 16.445,14.071 0,0 1.395,-0.802 -0.22,-1.337 z m -18.916,83.109 c 0,0 -20.056,-14.719 -45.206,-2.449 0,0 -9.347,2.473 -13.728,1.603 0,0 13.788,-2.799 20.464,-7.16 0,0 23.656,-8.292 40.687,6.688 0,0 0.542,3.013 -2.217,1.318 z m -33.272,88.965 c 0,0 -12.676,21.404 -40.624,19.984 0,0 -9.567,1.392 -13.255,3.91 0,0 13.781,-2.834 21.633,-1.441 0,0 25.012,-1.65 34.803,-22.108 0,-10e-4 -0.684,-2.986 -2.557,-0.345 z m 56.781,24.657 c 0,0 -12.676,21.404 -40.625,19.983 0,0 -9.566,1.392 -13.256,3.91 0,0 13.781,-2.834 21.634,-1.441 0,0 25.012,-1.65 34.802,-22.109 0,0 -0.683,-2.986 -2.555,-0.343 z M 123.832,214.676 c 0,0 -23.041,9.381 -44.439,-8.652 0,0 -8.461,-4.679 -12.922,-4.903 0,0 12.689,6.077 18.101,11.936 0,0 20.917,13.812 41.088,3.44 -10e-4,-0.001 1.261,-2.792 -1.828,-1.821 z m 51.703,16.673 c 0,0 24.21,-5.721 31.184,-32.822 0,0 4.178,-8.718 7.682,-11.487 0,0 -6.813,12.309 -7.822,20.221 0,0 -9.029,23.382 -31.477,26.631 -0.001,-0.001 -2.647,-1.543 0.433,-2.543 z m -5.393,-45.952 c 0,0 10.737,-2.538 13.83,-14.559 0,0 1.854,-3.867 3.408,-5.096 0,0 -3.021,5.46 -3.47,8.969 0,0 -4.005,10.371 -13.961,11.813 10e-4,0 -1.174,-0.684 0.193,-1.127 z m -29.345,170.64 c 0,0 0.926,-24.859 -23.344,-38.791 0,0 -7.293,-6.347 -9.031,-10.461 0,0 10.055,9.841 17.411,12.92 0,0 20.138,14.924 17.3,37.426 -0.001,0 -2.192,2.142 -2.336,-1.094 z M 124.223,201.336 c 0,0 15.019,-19.831 3.132,-45.164 0,0 -2.333,-9.383 -1.396,-13.75 0,0 2.59,13.828 6.851,20.57 0,0 7.934,23.777 -7.3,40.58 -0.001,0 -3.024,0.498 -1.287,-2.236 z m 92.042,86.605 c 0,0 -7.635,-7.873 -19.471,-4.39 0,0 -4.244,0.389 -6.084,-0.313 0,0 6.199,-0.202 9.422,-1.606 0,0 10.893,-1.865 17.194,5.897 0.001,0 0.014,1.352 -1.061,0.412 z"
       id="path568"
       inkscape:connector-curvature="0" />
    <path
       d="m 204.709,323.798 c 0,0 19.272,-25.449 4.019,-57.956 0,0 -2.992,-12.039 -1.79,-17.645 0,0 3.323,17.746 8.789,26.397 0,0 10.182,30.511 -9.368,52.072 -0.001,10e-4 -3.879,0.64 -1.65,-2.868 z m 69.673,87.119 c 0,0 -1.992,8.116 5.047,14.349 0,0 1.969,2.583 2.261,4.055 0,0 -2.64,-3.921 -4.851,-5.433 0,0 -5.612,-6.278 -3.15,-13.489 0,0 0.866,-0.555 0.693,0.518 z"
       id="path570"
       inkscape:connector-curvature="0" />
    <path
       d="m 302.213,403.867 c 0,0 -24.231,-2.145 -39.046,20.86 0,0 -6.563,6.805 -10.668,8.298 0,0 10.112,-9.328 13.485,-16.359 0,0 15.58,-18.92 37.413,-15.024 0,0 1.983,2.246 -1.184,2.225 z m -82.494,5.516 c 0,0 -13.898,-19.342 -40.431,-15.624 0,0 -9.242,-0.518 -12.973,-2.607 0,0 13.383,1.536 20.752,-0.456 0,0 23.992,-0.54 35.061,18.143 0.001,-10e-4 -0.398,2.905 -2.409,0.544 z"
       id="path572"
       inkscape:connector-curvature="0" />
    <path
       d="m 325.756,388.703 c 0,0 -131.933,-20.047 -188.596,-167.039 0,0 -29.051,-46.022 -50.445,-59.234 0,0 46.115,64.396 56.924,107.97 0,0 60.637,133.345 188.264,136.878 0,0 11.729,-14.993 -6.147,-18.575 z"
       id="path574"
       inkscape:connector-curvature="0" />
  </g>
  <path
     d="m 225.822,842.984 c 0,0 69.775,55.471 152.828,0 0,0 -55.461,-281.008 -10.476,-584.201 0,0 21.706,-82.134 43.591,-101.854 0,0 -72.555,138.829 -111.994,74.74 0,0 -35.525,-67.069 -34.51,-188.99 0,0 -12.325,149.55 4.93,238.289 0,-0.001 39.439,142.969 -44.369,562.016 z"
     id="path578"
     inkscape:connector-curvature="0"
     style="fill:#c47117" />
</svg>
