<?xml version="1.0" encoding="UTF-8" standalone="no"?>
<!-- Svg Vector Icons : http://www.onlinewebfonts.com/icon -->

<svg
   xmlns:dc="http://purl.org/dc/elements/1.1/"
   xmlns:cc="http://creativecommons.org/ns#"
   xmlns:rdf="http://www.w3.org/1999/02/22-rdf-syntax-ns#"
   xmlns:svg="http://www.w3.org/2000/svg"
   xmlns="http://www.w3.org/2000/svg"
   xmlns:sodipodi="http://sodipodi.sourceforge.net/DTD/sodipodi-0.dtd"
   xmlns:inkscape="http://www.inkscape.org/namespaces/inkscape"
   version="1.1"
   x="0px"
   y="0px"
   viewBox="0 0 1000 1000"
   enable-background="new 0 0 1000 1000"
   xml:space="preserve"
   id="svg86"
   sodipodi:docname="leaf2.svg"
   inkscape:version="0.92.1 r15371"><defs
     id="defs90" /><sodipodi:namedview
     pagecolor="#ffffff"
     bordercolor="#666666"
     borderopacity="1"
     objecttolerance="10"
     gridtolerance="10"
     guidetolerance="10"
     inkscape:pageopacity="0"
     inkscape:pageshadow="2"
     inkscape:window-width="1600"
     inkscape:window-height="837"
     id="namedview88"
     showgrid="false"
     inkscape:pagecheckerboard="true"
     inkscape:zoom="0.472"
     inkscape:cx="683.83165"
     inkscape:cy="553.57043"
     inkscape:window-x="-8"
     inkscape:window-y="-8"
     inkscape:window-maximized="1"
     inkscape:current-layer="g84" /><metadata
     id="metadata78"> Svg Vector Icons : http://www.onlinewebfonts.com/icon <rdf:RDF><cc:Work
     rdf:about=""><dc:format>image/svg+xml</dc:format><dc:type
       rdf:resource="http://purl.org/dc/dcmitype/StillImage" /><dc:title></dc:title></cc:Work></rdf:RDF></metadata><g
     id="g84"><g
       transform="matrix(1 0 0 -1 0 1952)"
       id="g82"><path
         d="M982.7,1930.5c0,0-550.9,33-718.8-214.2c-113.6-183.9-132.3-367.6,23.5-531.3c0,0-63.4-193.3-233.7-149.1c0,0-70.3,10.8-32.5-32.5c0,0,149.5-131.6,305.8,144.3c0,0,342.5-212.2,530.1,43.3C1035.6,1434.3,982.7,1930.5,982.7,1930.5L982.7,1930.5z M720.5,1655.5l135.6-50.7c0,0-146,26.5-152.8,16.2l-90.4-124c0,0,114.5,10.8,195.2-37.4c0,0-215.1,17.1-242.2-10l-88.1-135c0,0,154.2,18.8,240.8-35.4c0,0-260.7,50.5-305.1-34.2l-54.1-64.9c0,0-54.1-27.1-48.7,5.4l81.1,108.2c0,0,62.7,131.9-21.6,297.5c0,0,98.6-43.9,66.2-265.7l119,162.3c0,0-16.6,135.8-70.7,222.4c0,0,101.9-64.4,96.5-183.9c0,0,81.1,75.7,81.1,129.8c0,54.1,1.2,142.5,1.2,142.5s35.5-98.8,30-120.5c0,0,109.4,91.6,168.9,91.6L720.5,1655.5z"
         id="path80" /></g><path
       style="stroke-width:2.118644"
       d="M 88.995956,977.26391 C 60.085945,972.09472 26.492583,955.3805 17.619273,941.75078 c -8.4535455,-12.98496 -7.9713538,-18.61466 1.94941,-22.75983 9.5789,-4.00231 24.655345,-3.88939 43.891404,0.32875 22.498081,4.93343 59.958073,4.50222 80.404723,-0.92555 53.02885,-14.07708 98.83201,-56.27386 131.08957,-120.76805 15.1575,-30.30517 15.13515,-29.23433 0.94144,-45.10687 -46.88742,-52.4332 -80.5338,-115.97688 -92.97025,-175.58119 -19.80019,-94.89663 2.37549,-200.69271 65.51199,-312.54572 29.39712,-52.0801 63.36436,-87.80554 115.77907,-121.7719 C 465.85137,76.7579 621.47934,36.019387 817.30622,24.015786 c 19.2267,-1.178538 64.14327,-2.147227 99.81458,-2.152642 l 64.85695,-0.0098 1.3861,17.478813 C 995.33766,190.32398 987.738,359.14366 963.26379,485.83635 919.39491,712.92711 824.80887,844.98675 682.77232,877.45442 c -93.84243,21.45112 -210.94315,0.41962 -326.10476,-58.569 -15.23983,-7.80623 -28.36761,-14.19314 -29.17282,-14.19314 -0.80521,0 -7.39589,9.5339 -14.64593,21.18644 -30.1775,48.50231 -66.57375,91.01549 -98.5244,115.08286 -17.68617,13.32242 -48.09655,28.65477 -65.59398,33.07127 -16.63623,4.19916 -45.56793,5.76407 -59.734474,3.23106 z M 350.56245,777.04326 c 7.0142,-2.86013 14.17231,-9.92952 33.89831,-33.47812 13.75356,-16.41879 28.2551,-34.42981 32.22565,-40.02447 13.44036,-18.93801 41.03827,-32.79962 79.98115,-40.17212 9.73529,-1.84305 33.62517,-2.71862 72.75731,-2.66656 57.53487,0.0765 86.54345,2.3425 132.66584,10.36294 8.60159,1.49578 15.63924,2.05523 15.63924,1.24324 0,-2.58496 -19.51436,-12.11888 -38.25566,-18.69015 -42.33108,-14.84256 -84.9355,-20.22195 -151.76654,-19.16254 l -47.01373,0.74528 3.58152,-5.60494 c 45.91649,-71.85725 83.08189,-126.98678 87.26797,-129.44951 19.92278,-11.72081 84.49911,-14.45312 212.92373,-9.00903 l 25.42373,1.07776 -19.0678,-9.41007 C 753.70622,464.48756 714.40735,456.20095 655.60188,454.29201 l -39.88229,-1.29464 41.7017,-57.20339 c 22.93595,-31.46187 43.05466,-59.11017 44.70824,-61.44068 2.67799,-3.77428 5.14146,-4.19009 22.54498,-3.80532 19.02781,0.4207 82.01146,8.46074 113.67057,14.5104 14.33919,2.74005 22.0922,2.70462 14.75167,-0.0674 -1.62334,-0.61303 -31.65203,-11.8378 -66.73042,-24.94394 l -63.77888,-23.82936 69.60515,-56.01759 c 38.28284,-30.80968 69.60515,-56.83275 69.60515,-57.82906 0,-2.39925 -12.6464,-0.1776 -29.66102,5.21068 -28.78705,9.11644 -69.09082,32.35078 -111.75847,64.42658 l -25.95339,19.5107 -0.002,-7.77778 c -0.004,-11.14197 -8.9779,-46.63691 -20.61089,-81.52274 l -10.02725,-30.06859 -1.52898,74.15254 c -0.84093,40.7839 -2.11335,78.23269 -2.82759,83.21954 -2.98652,20.85252 -27.53201,59.9218 -60.45673,96.22955 l -15.77526,17.39617 -1.51442,-19.6002 C 577.80978,353.43571 556.063,307.22975 518.63374,269.5878 502.40912,253.271 487.39939,240.88452 485.79535,242.48857 c -0.48797,0.48796 4.68521,11.82324 11.49593,25.18951 22.02691,43.22852 39.84922,100.19898 51.97061,166.12843 l 5.4307,29.53799 -4.81601,6.64915 c -34.34334,47.41558 -110.86048,150.97064 -111.2586,150.57255 -0.28714,-0.28716 0.56663,-8.55254 1.89729,-18.3675 3.73284,-27.53347 3.16839,-94.48248 -1.0017,-118.81142 -7.79044,-45.4508 -24.3611,-83.19061 -46.2625,-105.36326 -9.31497,-9.43034 -20.69983,-18.05415 -22.05089,-16.70309 -0.5915,0.59148 2.35933,8.58991 6.5574,17.77425 11.20082,24.50467 23.27979,62.04411 28.89216,89.79202 6.58892,32.57597 7.15631,102.90173 1.05981,131.35593 -4.92519,22.98725 -11.60074,45.95608 -15.63417,53.79311 -1.73337,3.36799 -21.17234,30.14403 -43.19767,59.50231 -22.23128,29.6328 -40.04606,55.3518 -40.04606,57.81403 0,2.43945 1.61396,6.0493 3.58656,8.02191 4.45257,4.45256 24.51456,3.22644 38.14424,-2.33123 z"
       id="path92"
       inkscape:connector-curvature="0" /><path
       style="stroke-width:2.118644;fill:#ffffff"
       d="M 88.995956,977.26391 C 59.761697,972.03675 26.591151,955.53203 17.61744,941.748 9.165826,928.76595 9.6485637,923.13584 19.568683,918.99095 c 9.541025,-3.98649 22.961946,-3.88276 45.45379,0.35131 27.065061,5.09496 67.918257,3.14691 88.957537,-4.24188 51.2988,-18.01566 91.79363,-58.17359 122.89524,-121.87282 5.92347,-12.13187 10.76996,-23.12985 10.76996,-24.43998 0,-1.31013 -7.7253,-11.40526 -17.16736,-22.4336 C 198.79733,662.6308 166.90415,567.50707 177.59809,469.33336 185.63402,395.56107 220.00071,304.17357 265.40692,235.83311 327.03942,143.07062 462.23716,74.962138 647.95224,43.118474 732.5826,28.607314 788.44493,23.922037 893.79364,22.499297 l 88.13993,-1.190335 1.43839,17.750982 C 996.33978,199.09403 986.44402,382.77425 957.88052,512.21927 916.80802,698.35307 842.34667,813.57313 732.36307,861.18065 631.59177,904.80054 497.47294,889.73309 356.3466,818.93741 l -29.81555,-14.95691 -12.55733,20.46278 c -29.12657,47.46309 -67.58074,92.47777 -99.42173,116.38364 -17.93466,13.46513 -48.29748,28.78269 -65.82156,33.20593 -16.63623,4.19916 -45.56793,5.76407 -59.734474,3.23106 z M 343.94152,778.94406 c 5.74254,-1.92635 12.06057,-4.60373 14.04006,-5.94972 4.22422,-2.87233 48.93426,-55.80187 59.13615,-70.00771 8.65559,-12.0527 27.15561,-24.66634 44.77877,-30.53096 27.14148,-9.0321 41.89114,-11.07294 88.63449,-12.26396 48.75316,-1.24225 82.04189,0.76816 132.89913,8.02612 16.67534,2.37979 31.45288,3.94774 32.83898,3.48432 3.71178,-1.24093 -26.48481,-15.01603 -47.26796,-21.56273 -37.93246,-11.94873 -63.00926,-14.85595 -128.516,-14.89924 -47.19193,-0.0311 -59.34949,-0.59455 -58.17404,-2.69567 9.20169,-16.44805 84.99012,-129.91127 88.12527,-131.93276 18.52017,-11.9414 103.97583,-15.6271 214.03087,-9.23116 27.76271,1.61345 27.66587,0.25934 -0.86112,-12.03933 -38.57367,-16.63 -85.87598,-25.28457 -138.19513,-25.28457 -16.35097,0 -29.41127,-0.75517 -29.02284,-1.67818 0.38841,-0.92299 20.2507,-28.54746 44.13841,-61.38769 38.57485,-53.03178 44.20411,-59.86066 50.3342,-61.0607 9.90589,-1.93922 113.22769,10.77619 140.33942,17.271 14.67903,3.51646 -4.18052,-4.38117 -63.66256,-26.6593 l -65.59563,-24.56791 5.83889,-4.32212 c 16.41778,-12.15296 133.0593,-107.24819 133.68253,-108.98839 1.15336,-3.22057 -15.952,0.16394 -34.34532,6.79565 -29.77479,10.73528 -67.9175,33.26545 -109.9178,64.92633 l -22.77542,17.16868 v -8.18178 c 0,-10.37627 -9.93255,-49.0228 -21.61394,-84.09757 l -9.03371,-27.1248 -1.47309,74.15254 c -0.81022,40.7839 -2.08096,78.23269 -2.82388,83.21954 -3.1749,21.31114 -30.94388,65.02834 -62.38492,98.21368 l -14.78067,15.60068 -0.11674,-12.71186 c -0.37117,-40.39115 -18.80807,-87.39087 -49.00767,-124.93115 -11.88693,-14.77629 -42.77598,-43.50106 -46.77867,-43.50106 -0.97082,0 3.84153,11.20233 10.69411,24.89407 21.49805,42.95398 36.01708,87.33708 48.8596,149.35866 10.72911,51.81513 16.43146,37.23149 -49.63364,126.93691 -31.46187,42.72 -57.43568,77.44534 -57.71958,77.16744 -0.2839,-0.27788 0.54078,-8.5357 1.83263,-18.35066 3.71887,-28.2546 3.04095,-94.6415 -1.2207,-119.54032 -7.24146,-42.30851 -22.406,-77.90817 -42.77477,-100.41642 -11.54767,-12.76057 -23.48195,-22.68815 -25.20402,-20.96606 -0.496,0.49598 3.28152,10.40721 8.39449,22.02496 20.98739,47.6879 30.57934,89.73235 32.33411,141.73041 1.28311,38.02175 -0.66254,60.92334 -7.74155,91.123 -7.59371,32.39538 -10.89991,38.28344 -54.20951,96.54172 -22.65511,30.47472 -41.1911,56.51661 -41.1911,57.87085 0,1.35426 1.48415,4.5812 3.29809,7.17097 4.10483,5.86047 16.53258,6.33172 31.81178,1.20625 z"
       id="path94"
       inkscape:connector-curvature="0" /></g></svg>