<svg xmlns="http://www.w3.org/2000/svg" width="500" height="500"><g stroke="#000"><path d="M385.972 908.217h9.597c-2.338-47.477.008-94.954 1.515-142.431l-16.862 2.143z" fill="#2d2419" transform="matrix(3.03746 0 0 3.48014 -896.161 -2663.2)"/><path d="M361.907 908.463c6.6-45.457 9.642-95.2 2.852-140.657l14.142-.505 2.525 7.071 1.516-7.07h6.566l-3.684 141.125z" fill="#7c653b" transform="matrix(3.03746 0 0 3.48014 -896.161 -2663.2)"/></g><path d="M406.049 774.877l9.723 5.809.126 7.828-5.303 3.283-1.642 8.334h4.925l-1.39 24.875-4.419.632v2.904l3.03 16.415-11.49 4.545-2.399 15.658-19.572-23.108 6.314-62.376z" fill="#312822" stroke="#000" transform="matrix(3.03746 0 0 3.48014 -768.588 -2663.2)"/><path d="M306.107 781.79l5.09 3.93 11.25.714.357-6.608h-10.09l-5.357-.892z" fill="#61512e" stroke="#000" transform="matrix(3.03746 0 0 3.48014 -768.588 -2663.2)"/><path d="M257.857 778.076l49.286.715 7.143 6.428H320l1.429-7.857L365 779.505l43.571-7.857-4.285 14.286-9.286.714 10 4.286-.714 2.857-15 2.143L405 800.219l-1.429 22.143-11.428 1.429 10.714 5-1.428 15.714L385 847.362l15.714 2.143 2.143 20c-46.705-8.545-97.216-8.526-149.286-5l2.858-25 15.714-1.429-14.286-2.142v-15l5-2.858-5.714-2.142 1.428-3.572 12.858-1.428-12.858-2.143v-13.572l10.715-3.571-12.143-.714z" fill="#b18f5f" stroke="#000" transform="matrix(3.03746 0 0 3.48014 -768.588 -2663.2)"/><path d="M400.714 849.684l9.643.178 3.572 18.75-10.536.357zM400.536 844.326l10.714.893v-16.25l-8.75-.357zM403.036 821.648l8.928 3.036 2.143-24.643-8.75.357zM404.107 793.79l6.072 2.322 4.821 1.072.357-4.822-4.643-.536-5.357-.892zM404.19 785.872l11.85 3.119 1.072-13.393-8.393-3.75z" fill="#61512e" stroke="#000" transform="matrix(3.03746 0 0 3.48014 -768.588 -2663.2)"/><path style="marker:none" d="M385.357 788.97a4.821 4.821 0 1 1-9.643 0 4.821 4.821 0 0 1 9.643 0z" transform="matrix(3.03746 0 0 3.48014 -908.31 -2663.2)" color="#000" stroke="#333" overflow="visible"/><path transform="matrix(3.03746 0 0 3.48014 -908.853 -2663.821)" style="marker:none" d="M385.357 788.97a4.821 4.821 0 1 1-9.643 0 4.821 4.821 0 0 1 9.643 0z" color="#000" fill="#ccc" stroke="#333" overflow="visible"/></svg>